<?xml version="1.0" encoding="UTF-8"?>
<svg id="Layer_1" data-name="Layer 1" xmlns="http://www.w3.org/2000/svg" viewBox="0 0 1874.29 842">
  <defs>
    <style>
      .cls-1 {
        fill: #fdf7e4;
        stroke-width: 0px;
      }
    </style>
  </defs>
  <path class="cls-1" d="M1874.19,181.16c-.83-9.06-3.16-14.48-7.01-16.27-3.85-1.78-8.79-2.4-14.82-1.85l-238.81,19.77c-26.41,2.2-51.55,4.23-75.42,6.08l25.19-69.9,9.06-23.89c7.96-21.13,14.13-42.68,18.53-64.64v-1.23c.27-12.62-3.43-21.27-11.11-25.93-3.3-2.19-6.86-3.3-10.72-3.3-5.77,0-12.21,2.61-19.34,7.82-4.4,3.03-10.3,10.71-17.71,23.05l-2.06,4.53c-18.13,37.07-33.43,75.29-45.92,114.68-4.62,14.58-9.11,29.18-13.44,43.81-90.32,6.33-157.96,9.49-202.93,9.49-20.58,0-38.14-.34-52.7-1.03-13.37-.63-27.35-3.05-41.9-7.3,3.79-4.27,5.67-8.63,5.67-13.08,0-1.37-.4-4.17-1.24-8.43-.8-4.25-4.52-7.89-11.11-10.92-2.46-1.1-4.94-1.64-7.42-1.64-4.38,0-8.91,2.07-13.58,6.17-7.68,6.86-13.18,14.82-16.48,23.89-.81,2.48-1.23,4.94-1.23,7.4,0,6.59,3.03,13.04,9.06,19.36,2.74,3.03,6.17,5.36,10.29,6.99,1.92.83,3.85,1.52,5.77,2.06l6.16,1.64c8.8,2.48,22.65,3.72,41.6,3.72s37.47-1.1,56.4-3.3l14.42-1.64c17.57-1.64,34.99-3.3,52.28-4.94,48.13-5.04,95.61-9.4,142.43-13.1-5.73,19.82-11.22,39.7-16.43,59.62-16,61.55-30.47,122.51-43.44,182.88-3.91,7.45-7.97,14.98-12.14,22.58-1.92,3.3-2.88,6.59-2.88,9.88,0,3.56,1.34,7.29,4.02,11.16-1.92,1.6-3.99,3.51-6.19,5.71-19.21,21.14-46.39,34.99-81.52,41.59-4.4.55-8.65.83-12.77.83-3.85,0-8.65-.4-14.41-1.24-5.78-.82-15.23-4.38-28.41-10.71-23.61-14.27-44.34-39.38-62.17-75.34-1.65-3.3-3.64-5.97-5.97-8.03-2.34-2.06-5.99-3.09-10.91-3.09-2.2,0-4.4.68-6.59,2.06-3.85,1.92-14.01,15.78-30.47,41.58-12.62,19.77-25.8,39.26-39.53,58.47l-3.7,4.54c-15.37,20.31-26.35,30.46-32.94,30.46-.83,0-2.55-.4-5.15-1.22-2.61-.82-5.01-8.1-7.19-21.83-1.1-9.6-1.64-19.21-1.64-28.81,0-8.24.4-16.62,1.22-25.13v-2.06c4.11-35.12,10.7-63.12,19.77-84,1.37-3.56,2.07-6.85,2.07-9.88,0-4.11-1.24-7.68-3.72-10.69-4.11-4.94-9.46-7.42-16.05-7.42-.29,0-2.21.08-5.77.21-3.58.13-7.42,4.19-11.53,12.15-4.9,23.36-8.7,45.29-11.4,65.81-26.45,3.06-53.01,4.58-79.65,4.58-11.81,0-23.76-.26-35.83-.82l-15.23-1.24c-12.94-1.42-24.53-3.2-34.75-5.36-7.55-8.24-17.38-13.72-29.48-16.45l-4.54-.41c-5.49,0-10.5,2.55-15.03,7.61-4.53,5.09-6.78,12.43-6.78,22.03l.21,3.2-1.61,3.51c-.56-.08-1.22-.13-1.97-.13-16.97,0-45.37,6.83-85.17,20.47-.2-3.74-.56-7.88-1.09-12.45-.69-5.9-4.06-12.69-10.09-20.38-9.06-11.81-21.56-17.71-37.47-17.71-9.33,0-19.08,2.75-29.23,8.23-18.51,10.2-37.67,24.18-57.48,41.91,13.25-26.03,25.4-52.48,36.48-79.37,82.88-200.65,124.34-315.12,124.34-343.4,0-7.4-2.06-14.41-6.16-21-6.05-9.88-15.11-14.82-27.19-14.82s-24.29,5.77-35.82,17.3c-17.84,18.11-32.39,38.7-43.64,61.75-26.35,54.09-56,140.28-88.94,258.57-1.7,6.08-3.35,12.18-4.94,18.32-62.32,19.97-100.18,31.94-113.61,35.92,1.06-11.93,2.11-23.97,3.14-36.12,12.61-139.98,18.94-243.88,18.94-311.69,0-30.74-3.29-52.15-9.87-64.23-1.93-3.84-4.4-7.4-7.42-10.7-1.64-1.37-3.16-2.88-4.54-4.53-8.23-2.74-14.41-4.12-18.52-4.12-4.4.29-8.79,1.79-13.18,4.53-15.91,9.88-31.57,27.59-46.93,53.11-40.91,64.25-75.64,131.77-104.17,202.58-5.25,12.99-10.49,26.05-15.71,39.16-24.02-14.4-50.49-21.97-79.39-22.69-38.43,0-71.78,13.87-100.06,41.6-5.76,5.77-10.02,10.71-12.77,14.82-1.37,1.92-5.76,9.73-13.18,23.46-7.95,17.84-11.93,33.09-11.93,45.71,0,16.47,5.22,31.84,15.63,46.12,5.78,7.95,11.54,13.73,17.3,17.29,7.7,4.95,22.23,10.85,43.64,17.71,11.53,3.57,25.39,5.35,41.6,5.35,8.12,0,17.01-.24,26.66-.7-9.77,26.37-19.49,52.95-29.14,79.75-16.47,46.12-33.77,88.68-51.87,127.64-1.39,2.74-2.07,5.5-2.07,8.24,0,4.92,1.65,9.05,4.94,12.35,4.12,4.38,9.2,6.59,15.25,6.59.82,0,3.14-.21,6.98-.62,3.85-.42,7.01-5.02,9.49-13.8,10.7-38.97,21.81-77.95,33.35-116.93l6.99-24.71c7.51-26.71,15.54-53.24,24.09-79.58,13.5-.94,28.26-2.28,44.27-3.99,34.29-3.7,65.04-7.77,92.24-12.18,4.61,16.1,8.72,33.33,12.33,51.72,2.74,14.82,5.78,32.94,9.06,54.35,6.3,43.38,9.46,93.32,9.46,149.87v13.58l-1.64,56.4c0,3.3.54,6.44,1.64,9.48,5.48,18.65,12.07,28,19.77,28,5.22,0,11.66-4.26,19.35-12.77,1.37-1.64,2.34-5.76,2.88-12.35,1.1-10.17,3.15-25.81,6.18-46.94,13.51-95.32,25.53-201.36,36.08-318.11,57.91-16.5,92.27-26.17,103.08-28.99,2.07-.53,4.49-1.19,7.26-1.97-11.77,48.81-20.18,99.29-25.25,151.44l-.4,9.48c0,5.22,1.03,9.61,3.09,13.17,2.05,3.58,7.06,5.35,15.03,5.35,3.3,0,7.2-.35,11.73-1.03,4.54-.69,16.54-14.48,36.04-41.39,16.17-21.95,36.9-41.58,62.16-58.87,13.46-9.33,25.26-14.01,35.42-14.01,4.39,0,7.82,1.1,10.3,3.29,5.03,4.2,8.15,13.92,9.33,29.17-39.34,18.69-75.94,50.43-109.8,95.18-16.21,21.14-27.87,40.49-34.99,58.06l-4.94,12.35c-9.62,23.05-14.42,43.92-14.42,62.59l.41,8.65c.82,20.86,12.77,32.39,35.82,34.59,15.92,0,34.59-13.04,56-39.12,35.96-43.38,65.73-100.19,89.34-170.47,7.16-21.77,10.88-41.73,11.11-59.91,3.93-1.53,7.92-2.97,11.95-4.32,29.86-9.95,53.07-15.97,69.64-18.1-11.79,25.52-17.69,45.69-17.69,60.52,0,5.49.9,12.08,2.68,19.76,1.79,7.7,8.16,13.46,19.14,17.3,4.11,1.1,7.83,1.64,11.12,1.64,5.75,0,12.89-3.15,21.41-9.47,21.95-18.94,35.12-42.82,39.52-71.65.26-3.3.41-6.72.41-10.29,0-3.2-.17-6.21-.5-9.06,45.15-.12,95.03-2.82,149.63-8.11-1.93,18.5-2.9,35.75-2.9,51.76l.4,21.41c.83,27.19,10.7,44.62,29.65,52.3,2.74.55,5.49.82,8.23.82,19.21,0,39.4-16.48,60.53-49.41l39.94-58.05c10.44-14.55,18.39-25.93,23.89-34.18,6.04,8.79,10.02,15.09,11.94,18.95,19.49,31.01,41.86,51.19,67.11,60.53,11.81,3.85,24.15,5.76,37.05,5.76,5.22,0,10.43-.27,15.65-.82,32.52-5.67,60.17-18.52,82.96-38.57-18.57,93.9-33.43,186.36-44.57,277.38l-1.24,17.29c-.54,8.24,1.94,13.86,7.42,16.87,2.74,1.65,5.76,2.48,9.05,2.48,10.44,0,15.93-5.77,16.47-17.29l.42-16.88c3.52-98.43,13.99-196.44,31.39-294.03.63.04,1.29.06,1.96.06,6.59,0,11.66-4.12,15.23-12.36,18.66-43.92,33.49-82.61,44.47-116.11,15.09-46.39,34.18-101.42,57.23-165.11l2.15-5.95c55.11-3.64,109.29-6.32,162.54-8.04,20.03-.56,39.94-.83,59.7-.83,28.29,0,51.24.51,68.85,1.53,1.21,4.21,3.65,7.68,7.32,10.42,3.02,2.2,6.31,3.3,9.88,3.3,3.85,0,8.64-1.24,14.41-3.72,5.22-2.18,9.82-5.07,13.8-8.64,3.98-3.56,5.69-9.33,5.15-17.29ZM1551.8,25.11c0,.28.07.56.2.83.13.27.34.4.62.4-.05,1.64-.14,3.36-.27,5.16-.64-1.64-.95-3.77-.95-6.4h.4ZM1165.17,205.04l1.86-3.09c-.41,1.1-1.04,2.12-1.86,3.09ZM151.6,477.68c-26.38-1.43-48.09-4.88-65.14-10.36l-18.12-7.82c-24.7-10.7-37.04-26.35-37.04-46.94v-9.05c0-5.78,2.33-13.86,6.99-24.3l2.48-5.35c16.18-29.93,40.35-48.32,72.47-55.18,10.7-1.64,18.1-2.46,22.23-2.46,25.9.21,49.48,6.54,70.77,18.99-18.42,46.75-36.63,94.24-54.63,142.47ZM181.16,478.43c-4.4,0-8.69-.04-12.89-.14,15.2-45.57,31.96-90.57,50.28-135.03,2.39,1.74,4.76,3.56,7.08,5.47,15.09,12.64,26.62,25.26,34.58,37.88,13.83,21.92,25.63,48.47,35.42,79.61-42.52,8.15-80.67,12.21-114.47,12.21ZM357.79,758c-.08.39-.16.77-.24,1.16-3.26-25.96-5.52-46.39-6.75-61.27-7.98-89.1-18.85-163.26-32.58-222.51,25.15-4.54,46.86-9.42,65.11-14.66,5.92-1.69,11.65-3.33,17.19-4.91-9.62,107.71-23.86,208.45-42.72,302.19ZM402.67,430.67c-.33,3.99-.66,7.97-1,11.94-25.88,6.11-51.76,12.01-77.63,17.71-3.01.67-6,1.32-8.98,1.96-2.79-11.25-5.7-21.92-8.73-32.01-11.81-39.53-29.66-71.23-53.54-95.12-7.29-7.29-14.87-13.8-22.72-19.51,3.56-8.45,7.29-16.9,11.19-25.36,35.69-79.6,70.01-142.47,102.94-188.58,17.84-25.24,35.13-43.76,51.88-55.57,2.18-1.65,4.79-2.88,7.83-3.72.26,0,.47.14.62.42.13.28.35.49.62.62.26.13.4.34.4.6-1.1.83-2.2,1.38-3.3,1.66-1.1.28-2.07.41-2.88.41s-1.22.28-1.22.82c.26,1.65.82,3.31,1.64,4.94,2.74,5.77,4.65,12.63,5.76,20.59,5.22,30.46,7.83,61.62,7.83,93.46,0,88.39-3.57,176.64-10.71,264.74ZM530.85,515.9c-6.86,7.96-10.29,14.69-10.29,20.17,0,3.73.57,6.9,1.72,9.52-.17.12-.34.24-.5.36-1.37,3.3-2.33,4.94-2.87,4.94s-.83-.96-.83-2.88c0-8.22,3.84-31.15,11.54-68.75,4.51-22.07,9.24-43.4,14.17-63.99.71-.22,1.43-.44,2.16-.66,4.12-1.37,6.18-4.12,6.18-8.24s-1.45-6.59-4.34-7.45c26.44-105.83,58.68-191.46,96.7-256.88,7.13-12.35,14.47-23.12,22.02-32.32,7.55-9.19,16.96-17.5,28.21-24.91,2.48-1.64,4.54-2.46,6.18-2.46,2.18,0,3.3,4.25,3.3,12.75,0,17.57-2.34,35.14-7,52.7-23.61,91.42-57.93,180.77-102.94,268.05-23.05,45.02-44.19,78.36-63.4,100.05ZM682.79,533.19c0,22.79-7.28,52.44-21.82,88.94-13.45,33.77-30.75,64.38-51.88,91.82-10.7,14-23.33,26.07-37.88,36.23-7.96,5.76-13.86,8.64-17.7,8.64-8.25,0-12.35-4.53-12.35-13.58l-.41-7c0-27.16,12.08-63.13,36.23-107.88,29.18-43.66,64.45-76.41,105.82-98.23v1.05ZM811.32,555.84c-.56.56-1.1.83-1.65.83-.27,0-.55-.54-.81-1.65l.4-5.36c.56-3.83,1.1-6.72,1.64-8.64,4.67-16.61,12.05-31.82,22.12-45.64.72,1.36,1.31,2.85,1.77,4.48,0,1.1.13,2.41.41,3.91.26,1.51.4,3.22.4,5.15-1.64,18.94-9.75,34.58-24.29,46.93ZM1467.4,314.98l-4.54,11.94c-8.32,22.52-18.18,45.99-29.56,70.4,9.56-41.39,20.37-82.69,32.45-123.92,6.54-22.03,13.62-43.96,21.23-65.76,6.48-.48,12.94-.95,19.38-1.41-12.05,36.56-25.04,72.81-38.97,108.74ZM1511.35,190.93c-6.41.48-12.72.95-18.92,1.4,3.81-10.54,7.75-21.06,11.81-31.55,11.14-28.75,24.46-56.32,39.95-82.7-2.34,9.71-5.15,20.33-8.45,31.84-7.62,27.18-15.76,54.18-24.39,81.01ZM1849.49,201.34c-1.07-.54-2.29-1.33-3.66-2.37.83.1,1.64.2,2.43.31,1.37,1.37,2.05,2.2,2.05,2.46l-.82-.4Z"/>
</svg>