<?xml version="1.0" encoding="UTF-8"?>
<svg id="Layer_1" data-name="Layer 1" xmlns="http://www.w3.org/2000/svg" viewBox="0 0 1881.87 617.28">
  <defs>
    <style>
      .cls-1 {
        fill: #fdf7e4;
        stroke-width: 0px;
      }
    </style>
  </defs>
  <path class="cls-1" d="M1879.81,380.14c-1.38-1.38-3.09-2.07-5.15-2.07-1.37,0-2.75.23-4.12.69-32.31,10.78-64.15,22.93-95.54,36.43l-7.23,3.44c-10.8,5.31-21.38,10.83-31.76,16.55-.4-.47-.82-.94-1.23-1.42l-5.15-6.53-11.69-13.41c-26.35-29.32-43.31-54.19-50.87-74.58-.91-2.52-1.59-5.16-2.06-7.91-.23-1.37-.46-2.68-.69-3.95-.23-1.25-.34-2.46-.34-3.6,0-5.96.7-10.42,2.06-13.41,6.41-12.14,21.54-19.02,45.37-20.62,21.53,0,41.01,3.67,58.43,11l1.03.69c2.51,1.15,4.63,2.52,6.35,4.12,1.71,1.6,2.58,4.01,2.58,7.21l-.34,3.43c0,5.96,2.06,10.44,6.18,13.4,3.22,2.07,6.54,3.1,9.98,3.1,1.82,0,4.62-.51,8.41-1.54,3.78-1.03,6.48-5.33,8.08-12.89v-3.1c0-14.2-5.85-25.66-17.53-34.36-2.3-1.6-4.71-2.98-7.21-4.12-1.39-.46-2.64-1.03-3.79-1.73-22-7.78-44.68-11.68-68.05-11.68-2.75,0-7.34.23-13.75.68l-5.15.35c-13.53,2.07-25.44,6.3-35.76,12.71-10.31,6.43-17.18,16.85-20.61,31.28-.46,3.43-.69,6.75-.69,9.97,0,8.94,1.72,17.99,5.16,27.15,5.26,11.42,11.71,22.15,19.32,32.19-22.31,14.74-44.36,26.58-66.12,35.52-20.17,8.48-39.42,12.71-57.74,12.71l-6.88.34c-.46-.22-1.25-.34-2.39-.34-2.53-.22-5.51-.68-8.95-1.37-9.17-1.82-13.75-6.64-13.75-14.43,0-2.23.16-4.48.49-6.74,1.71.63,3.73,1.16,6.04,1.58,20.39-1.37,37.46-8.94,51.21-22.69,6.88-6.86,12.72-15.11,17.53-24.75,1.82-4.11,2.75-8.13,2.75-12.02,0-4.58-1.27-9.05-3.79-13.4-5.73-7.11-13.51-11-23.37-11.69-18.57.46-37.81,13.3-57.74,38.49l-3.43,4.48c-2.82,4.12-5.39,8.52-7.72,13.16-2.54,1.2-5.94,3.1-10.2,5.74-6.66,3.9-13.42,7.57-20.28,10.99-42.85,22.24-82.5,34.15-118.93,35.74-3.43,0-8.36-.45-14.77-1.37-8.95,0-13.41-4.24-13.41-12.71,0-4.81,2.29-10.99,6.88-18.55,5.72-9.85,12.71-18.91,20.96-27.16,8.64-9.3,18.82-16.96,30.54-23-.2.33-.41.67-.63,1-1.39,3.21-2.07,6.07-2.07,8.59,0,3.44,1.15,6.43,3.45,8.95,3.43,4.35,7.9,6.52,13.4,6.52h4.81c4.58-.22,8.59-5.95,12.03-17.18,2.75-7.33,4.12-13.52,4.12-18.57,0-3.2-.69-6.41-2.06-9.62-4.59-7.78-11.8-12.25-21.64-13.4-18.1.46-39.08,14.78-62.9,42.96-4.29,4.29-10.11,11.97-17.47,23.04-.04,0-.07,0-.11,0-2.75,0-6.88,2.41-12.37,7.21-3.89,3.44-8.02,6.76-12.37,9.96-33.69,24.98-63.7,41.25-90.04,48.82l-2.41.34c-6.19,1.38-11.92,2.06-17.19,2.06-9.4,0-14.66-4.8-15.81-14.43l-.34-10.31c0-1.83.06-3.54.16-5.15.11-1.61.23-3.22.34-4.82.11-1.6.28-3.2.51-4.81,2.98-22.22,11.35-46.06,25.1-71.49.45-1.82.68-3.66.68-5.5,0-3.89-1.44-7.16-4.3-9.8-2.86-2.63-6.24-3.95-10.13-3.95-.93,0-2.93.28-6.02.86-3.1.57-5.79,4.07-8.08,10.48-2.07,12.14-4.75,24.29-8.07,36.43-.37,1.36-.74,2.73-1.1,4.1-3.32.58-6.81,1.97-10.5,4.14-3.21,1.6-6.53,3.1-9.96,4.48-8.03,2.51-16.96,3.77-26.82,3.77-14.43,0-26.92-3.54-37.46-10.64-4.81-3.66-8.47-6.88-10.99-9.62-9.62-10.08-15.93-17.3-18.91-21.66-6.42-9.62-12.37-14.78-17.87-15.46-12.14,0-22.33,12.37-30.58,37.12l-2.75,6.52c-4.59,11.69-8.94,23.32-13.06,34.89-4.12,11.57-8.48,22.98-13.06,34.2-5.5,15.12-11.57,29.33-18.21,42.62-4.82,10.31-9.28,15.46-13.41,15.46-3.89,0-8.59-7.45-14.09-22.34-5.73-22.46-9.17-45.26-10.31-68.4-1.6-16.27-2.4-32.65-2.4-49.15,0-18.32,1.02-36.76,3.09-55.33,0-7.55-2.75-12.71-8.25-15.46-2.75-1.37-5.5-2.07-8.25-2.07-10.76,0-16.15,5.86-16.15,17.53,1.91,13.23,3.65,26.32,5.2,39.24-.79-.06-1.63-.08-2.52-.08-1.14,0-4.24.46-9.28,1.37-5.04.93-10.43,1.38-16.15,1.38-20.63,0-46.99-4.58-79.05-13.75-17.65-5.04-31.51-7.57-41.59-7.57-2.98,0-5.84.23-8.59.69-28.06,5.05-47.62,27.18-58.69,66.38,2.23-11.26,4.39-22.27,6.45-33.04,7.55-38.95,11.34-60.83,11.34-65.65s-1.73-8.47-5.16-10.99c-3.44-2.52-7-3.79-10.66-3.79-1.6,0-4.29.51-8.07,1.55-3.79,1.03-5.8,5.43-6.02,13.23-1.12,28-3.29,55.71-6.53,83.13-.58.2-1.17.45-1.77.75-25.21,17.42-50.08,31.17-74.59,41.24-20.17,8.48-39.42,12.71-57.74,12.71l-6.88.34c-.46-.22-1.25-.34-2.39-.34-2.53-.22-5.51-.68-8.95-1.37-9.17-1.82-13.75-6.64-13.75-14.43,0-2.23.16-4.48.49-6.74,1.71.63,3.72,1.16,6.04,1.58,20.39-1.37,37.46-8.94,51.21-22.69,6.88-6.86,12.71-15.11,17.53-24.75,1.82-4.11,2.75-8.13,2.75-12.02,0-4.58-1.26-9.05-3.78-13.4-5.73-7.11-13.51-11-23.37-11.69-18.57.46-37.81,13.3-57.74,38.49l-3.44,4.48c-.13.19-.26.38-.38.57-.63-.15-1.35-.23-2.15-.23l-5.5,1.03c-38.95,8.93-80.77,20.62-125.45,35.05-13.63,4.43-26.83,9.09-39.6,13.95-.43-.53-.87-1.06-1.3-1.58-16.5-19.46-37.58-38.03-63.24-55.67-9.4-6.18-18.91-12.26-28.53-18.22-4.59-2.75-8.09-4.86-10.48-6.36-2.41-1.49-5.1-3.03-8.07-4.63-2.98-1.6-7.21-4.01-12.72-7.23l-29.56-16.49c-15.12-8.02-30.01-16.61-44.67-25.78-23.83-14.43-41.48-30.13-52.94-47.08-4.81-7.1-7.21-16.15-7.21-27.16,0-14.89,7.68-32.98,23.03-54.3l5.5-6.53c19.93-23.6,44.16-44.16,72.69-61.69,28.53-17.53,54.94-30.3,79.22-38.33,40.55-14.43,79.74-21.64,117.55-21.64,10.53,0,21.07.46,31.62,1.37,12.59,1.84,25.31,4.7,38.14,8.59,12.82,3.89,23.82,10.66,32.99,20.28,1.6,1.84,2.98,3.79,4.12,5.84l3.1,6.18c2.96,5.28,4.46,12.39,4.46,21.31,0,12.37-3.73,25.26-11.18,38.67-7.44,13.41-17.25,24.81-29.39,34.2-4.58,3.89-6.87,8.14-6.87,12.71,0,6.64,3.2,11.46,9.62,14.44,1.82.92,3.79,1.37,5.85,1.37,3.43,0,6.98-1.37,10.65-4.12,13.06-13.51,24.17-28.41,33.34-44.68,9.4-18.79,14.09-36.43,14.09-52.93,0-6.18-.7-12.26-2.07-18.22-3.21-11.68-7.9-21.31-14.09-28.87-8.48-9.84-18.68-17.4-30.59-22.68-22.69-9.62-50.08-14.44-82.14-14.44-38.95,0-76.99,6.3-114.11,18.91l-30.93,11.34c-55.45,23.38-101.17,52.02-137.14,85.93-6.42,6.42-12.72,13.06-18.9,19.93C10.54,161.54,0,184.68,0,205.54c0,13.75,2.75,24.75,8.25,32.99,2.75,4.59,6.31,9.17,10.66,13.75l6.88,7.91c12.83,11.23,26.57,20.96,41.24,29.21,14.66,8.25,29.56,16.15,44.68,23.71,29.56,14.44,53.38,27.28,71.49,38.49,4.12,2.75,9.63,6.19,16.5,10.32,16.73,11.46,32.55,24.34,47.44,38.66,6.44,6.19,12.3,12.8,17.58,19.84-61.32,25.07-112.09,55.4-152.31,91.01-11.23,9.4-20.17,20.29-26.82,32.65-5.03,9.17-7.55,18.34-7.55,27.49,0,2.97.68,8.13,2.06,15.46,1.37,7.33,9.62,15.01,24.75,23.03,12.6,4.81,25.54,7.21,38.84,7.21l17.18-1.02c13.75-.92,31.05-5.5,51.9-13.75,28.18-11.24,51.61-26.83,70.28-46.75,18.67-19.93,28.01-42.28,28.01-67.03,0-7.79-.92-15.69-2.75-23.71-4.29-15.37-10.88-29.49-19.76-42.35,12.47-4.96,24.55-9.29,36.26-13,7.79-3.2,28.75-9.73,62.89-19.59,15.88-4.5,35.77-9.2,59.67-14.11-3.08,6.08-5.74,12.61-7.99,19.61-1.37,4.36-2.06,8.6-2.06,12.72,0,7.57,2.3,14.79,6.88,21.65,8.7,9.85,23.13,14.78,43.3,14.78,8.02,0,16.03-.91,24.06-2.75,33-8.71,64.27-21.77,93.83-39.19,8.62-5.16,16.51-10.07,23.7-14.72-3.85,28.71-8.87,57.1-15.06,85.16-2.06,9.17-3.09,16.05-3.09,20.62,0,8.94,4.93,13.41,14.77,13.41,12.14,0,19.13-8.02,20.97-24.07,7.1-52.24,17.4-90.62,30.93-115.13,6.18-11.68,15.8-20.51,28.87-26.47,3.66-1.6,8.36-2.4,14.08-2.4,7.79,0,26.24,2.75,55.35,8.25,12.83,2.29,31.96,4.24,57.39,5.84l6.19.34c5.5,0,10.99-.45,16.49-1.37l7.91-1.38c1.17-.2,2.24-.43,3.2-.71,2.09,18.55,3.79,36.78,5.11,54.69,3.66,51.56,9.39,85.93,17.18,103.11,4.35,9.62,11.91,15.46,22.69,17.53,9.85-1.14,17.4-5.91,22.68-14.26,5.27-8.36,9.39-16.79,12.37-25.26l15.46-45.03c3.43-12.14,11.46-32.41,24.06-60.83l4.12-10.66c1.15-2.28,2.06-4.34,2.75-6.18,5.04-11.91,8.81-17.87,11.34-17.87,2.06,0,5.72,3.32,10.99,9.97,10.08,11.69,19.02,20.17,26.82,25.42,3.2,2.3,6.75,4.37,10.64,6.19,12.14,6.43,25.67,9.62,40.57,9.62,12.54,0,26.57-3.05,42.09-9.19-1.03,4.83-1.97,9.73-2.84,14.69l-1.02,5.5c-.68,4.12-1.03,8.25-1.03,12.37,0,6.42.98,13.87,2.91,22.33,1.96,8.48,8.53,15.01,19.77,19.59,5.03,1.6,9.74,2.41,14.1,2.41s10.41-1.14,18.21-3.43l7.56-1.73c34.77-13.98,66.03-31.01,93.84-51.09-.89,3.66-1.33,7.17-1.33,10.54,0,8.03,3.09,15.48,9.27,22.34,8.48,7.8,20.74,11.69,36.78,11.69,10.54,0,23.14-2.29,37.81-6.88,34.43-10.33,71.64-26.12,111.65-47.39-.84,3.38-1.27,6.69-1.27,9.92,0,7.57,2.29,14.79,6.87,21.65,8.7,9.85,23.13,14.78,43.3,14.78,8.02,0,16.03-.91,24.07-2.75,32.99-8.71,64.26-21.77,93.82-39.19,8.74-5.24,16.75-10.21,24.02-14.93,1.48,1.68,3,3.34,4.55,4.97l7.57,8.94c3.66,4.12,6.64,7.62,8.93,10.48s4.12,5.1,5.5,6.7c1.18,1.38,2.1,2.34,2.78,2.86.23.28.46.58.73.89l-.51-.73s.07.06.11.08l.48.73s-.05-.05-.07-.08l.27.38-.18-.28c1.28,1.55,2.95,3.47,5,5.78l8.59,10.66c1.05,1.58,2.3,3.29,3.77,5.15-19.84,12.29-35.41,26.16-46.72,41.6-7.33,9.85-11,18.67-11,26.46,0,11.23,5.39,20.86,16.15,28.87,7.1,4.35,15.01,6.53,23.72,6.53,2.29,0,6.92-.4,13.92-1.2,6.98-.8,14.72-3.72,23.21-8.76,10.07-5.96,17.98-14.44,23.71-25.44,2.06-6.18,3.09-12.14,3.09-17.87,0-13.22-6.53-28.66-19.56-46.33,1.56-.89,3.15-1.84,4.78-2.82,27.03-16.72,65.31-33.1,114.8-49.14l8.59-2.75c4.81-1.6,7.21-4.46,7.21-8.6,0-1.82-.69-3.43-2.06-4.8ZM1537.27,358.83c5.15-3.89,9.56-6.3,13.23-7.23l.34,1.38c0,.92-.18,2.12-.51,3.6-.35,1.5-1.09,3.1-2.24,4.82-1.14,1.71-2.86,3.37-5.15,4.98-2.29,1.61-5.33,2.98-9.11,4.12-2.81.85-6.14,1.45-10.01,1.8,4.01-5.24,8.49-9.73,13.45-13.47ZM494.2,358.83c5.15-3.89,9.55-6.3,13.23-7.23l.34,1.38c0,.92-.18,2.12-.52,3.6-.35,1.5-1.08,3.1-2.23,4.82-1.14,1.71-2.87,3.37-5.16,4.98-2.29,1.61-5.32,2.98-9.1,4.12-2.81.85-6.14,1.45-10.01,1.8,4-5.24,8.49-9.73,13.45-13.47ZM289.75,486.34c0,7.57-1.15,15.12-3.44,22.69-13.52,37.35-39.98,63.69-79.39,79.04-5.05,2.06-9.98,3.77-14.78,5.16-21.31,6.86-39.07,10.31-53.28,10.31-10.32,0-19.94-2.07-28.87-6.18-10.54-6.88-15.8-15.94-15.8-27.16,0-1.6.39-6.24,1.2-13.91.8-7.68,9.33-18.73,25.61-33.17,29.1-26.8,62.38-49.89,99.84-69.26,17.43-9,34.25-17.01,50.46-24,4.19,6.48,7.94,13.28,11.24,20.4,4.81,10.99,7.21,23.02,7.21,36.08ZM1699.39,418.38c.05.23.27.61.65,1.17-.4-.5-.62-.89-.65-1.17ZM1746.8,497.34c0,4.58-1.14,8.94-3.43,13.06-6.66,9.85-15.48,16.84-26.47,20.96-4.12,1.61-8.13,2.41-12.02,2.41-6.88,0-13.63-2.41-20.28-7.22-3.89-4.35-5.84-8.81-5.84-13.4,0-1.14.34-3.55,1.02-7.22,1.38-6.41,6.31-14.32,14.78-23.71,10.72-10.29,22.32-18.57,34.78-24.82,4.16,6.41,8.15,13.42,11.97,21.04,3.66,6.88,5.5,13.18,5.5,18.91Z"/>
  <path class="cls-1" d="M1197.09,250.21c-3.44-3.43-7.57-5.15-12.37-5.15-.7,0-2.76.23-6.19.69-3.43.46-6.52,4.24-9.27,11.33,0,.25-.3,1.56-.87,3.96-.58,2.41-.86,4.53-.86,6.36,0,4.58,1.59,8.37,4.8,11.34,3.22,2.98,7,4.46,11.35,4.46.92,0,3.09-.28,6.53-.86,3.44-.57,6.41-4.41,8.93-11.52l.69-1.71c1.15-2.29,1.72-5.04,1.72-8.25,0-4.36-1.49-7.91-4.46-10.66Z"/>
</svg>