<?xml version="1.0" encoding="UTF-8"?>
<svg id="Layer_1" data-name="Layer 1" xmlns="http://www.w3.org/2000/svg" viewBox="0 0 1881.52 904.8">
  <defs>
    <style>
      .cls-1 {
        fill: #fdf7e4;
        stroke-width: 0px;
      }
    </style>
  </defs>
  <path class="cls-1" d="M615.96,608.57c.23.11.45.22.69.33.08-.24.18-.48.27-.73-.32.14-.63.27-.95.4Z"/>
  <path class="cls-1" d="M1006.85,407.61c-4.53-4.52-9.96-6.77-16.29-6.77-.91,0-3.63.3-8.15.91-4.51.61-8.58,5.58-12.2,14.91,0,.32-.39,2.06-1.14,5.22-.76,3.17-1.13,5.97-1.13,8.37,0,6.03,2.09,11.02,6.33,14.93,4.22,3.92,9.2,5.87,14.94,5.87,1.2,0,4.07-.37,8.6-1.13,4.52-.75,8.44-5.8,11.76-15.16l.91-2.25c1.51-3.01,2.26-6.63,2.26-10.86,0-5.74-1.96-10.41-5.87-14.03Z"/>
  <path class="cls-1" d="M1625.1,567.31c-.96-1.66-2.76-2.57-5.37-2.71,1.92,2.93,3.95,5.91,6.08,8.94.59-1.08.88-1.81.88-2.17,0-.9-.54-2.25-1.58-4.07Z"/>
  <path class="cls-1" d="M1878.79,578.63c-1.81-1.82-4.07-2.72-6.77-2.72-1.81,0-3.62.31-5.43.91-42.54,14.18-84.44,30.18-125.76,47.95l-9.51,4.53c-14.21,6.99-28.14,14.25-41.8,21.78-.54-.62-1.08-1.24-1.63-1.87l-6.77-8.6-15.39-17.65c-15.91-17.71-29.21-34.17-39.91-49.4-2.13-3.03-4.16-6.01-6.08-8.94-9.5-14.47-16.48-27.74-20.96-39.82-1.2-3.32-2.1-6.79-2.71-10.41-.3-1.8-.6-3.53-.91-5.2-.29-1.65-.44-3.24-.44-4.74,0-7.85.91-13.72,2.71-17.65,8.44-15.98,28.34-25.03,59.71-27.15,28.34,0,53.99,4.84,76.92,14.48l1.36.91c3.3,1.51,6.09,3.32,8.35,5.43,2.26,2.11,3.4,5.27,3.4,9.5l-.44,4.52c0,7.85,2.71,13.74,8.13,17.64,4.22,2.72,8.6,4.08,13.13,4.08,2.41,0,6.1-.67,11.07-2.03,4.98-1.36,8.53-7.01,10.65-16.96v-4.08c0-18.7-7.7-33.77-23.08-45.23-3.02-2.11-6.19-3.93-9.5-5.43-1.83-.61-3.47-1.36-4.98-2.28-28.95-10.25-58.82-15.37-89.58-15.37-3.62,0-9.65.31-18.09.9l-6.77.46c-17.81,2.72-33.48,8.29-47.07,16.73-13.56,8.46-22.62,22.18-27.13,41.17-.61,4.51-.92,8.89-.92,13.12,0,11.77,2.28,23.68,6.79,35.74,8.38,18.2,19.04,35.05,31.96,50.57l-.43.55c-8.46,11.16-17.04,22.02-25.78,32.58-34.69,40.72-70.29,70.88-106.76,90.48l-9.96,3.61c-9.96,3.62-16.59,5.43-19.91,5.43h-.9c-11.16-3.01-18.7-12.67-22.63-28.95-3.92-16.28-5.87-31.96-5.87-47.05,0-5.64.27-15.27.8-28.88,3.7-5.87,7.36-11.78,10.96-17.71,28.05-46.14,55.19-92.74,81.44-139.79,5.12-9.65,24.27-43.27,57.44-100.89,45.24-76.9,77.21-138.12,95.91-183.66l3.17-9.05c8.13-21.72,12.22-38.45,12.22-50.22,0-8.44-1.97-16.44-5.88-23.98-6.03-11.76-15.39-17.95-28.05-18.56l-7.24-1.34c-10.86,2.71-18.25,5.12-22.16,7.24-12.97,8.13-25.64,21.25-38.01,39.35-22.32,34.69-41.03,71.18-56.1,109.49l-6.34,14.03c-60.33,151.71-97.72,268.87-112.19,351.51-1.22,6.04-2.28,11.84-3.17,17.42-.39,2.45-.76,4.9-1.09,7.37-38.84,55.66-79.64,102.13-122.41,139.44-18.4,15.98-35.13,26.69-50.21,32.11-10.86,4.22-17.81,6.34-20.82,6.34-6.03-.9-10.71-3.01-14.03-6.34-7.54-5.42-13.42-15.68-17.63-30.77-5.14-18.69-7.7-42.52-7.7-71.47,0-18.6,1.11-37.14,3.34-55.61,12.42-12.19,23.67-25.33,33.75-39.4,18.39-26.24,29.71-43.56,33.94-52.01,41.91-72.69,81.72-146.58,119.44-221.69l2.71-4.51c6.33-13.58,12.95-27.15,19.9-40.73,25.94-47.95,44.04-91.23,54.29-129.84l1.35-6.77c1.51-9.05,2.26-14.78,2.26-17.2-.31-9.36-2.72-17.94-7.24-25.78-6.34-10.25-16.29-15.39-29.85-15.39-3.94,0-8.01.77-12.22,2.27l-19.9,12.2-5.43,5.89c-3.92,3.62-7.69,7.4-11.3,11.31-31.98,39.2-64.72,96.66-98.18,172.36-37.7,86.86-66.35,173.72-85.95,260.58-2.58,10.74-5.53,24.24-8.88,40.48-.36-.23-.74-.45-1.14-.67-1.21-.59-2.56-.9-4.07-.9-3.62,0-9.05,3.17-16.29,9.5-5.12,4.53-10.55,8.9-16.29,13.11-44.34,32.88-83.85,54.29-118.52,64.25l-3.17.44c-8.15,1.82-15.7,2.71-22.63,2.71-12.37,0-19.3-6.32-20.8-18.99l-.45-13.57c0-2.41.07-4.66.22-6.77.14-2.12.3-4.23.44-6.35.15-2.11.38-4.22.68-6.33,3.93-29.25,14.94-60.62,33.04-94.1.59-2.4.9-4.82.9-7.24,0-5.12-1.9-9.42-5.66-12.9-3.76-3.47-8.21-5.2-13.33-5.2-1.21,0-3.85.37-7.92,1.13-4.08.75-7.63,5.36-10.64,13.8-2.72,15.98-6.25,31.97-10.63,47.96-.25.9-.49,1.81-.72,2.71-.31.13-.63.29-.95.44-22.32,12.07-48.12,24.43-77.36,37.11-45.84,19.6-90.78,29.4-134.81,29.4-31.98,0-63.49-4.97-94.56-14.93-2.99-1.07-5.9-2.28-8.73-3.65-.23-.11-.45-.22-.69-.33.32-.13.64-.26.95-.4,56.12-23.81,106.13-63.97,150.07-120.48,2.4-4.51,3.62-8.74,3.62-12.67s-1.74-8.29-5.22-13.13c-3.47-4.82-9.42-7.24-17.86-7.24-6.95,0-12.97,4.09-18.09,12.22-5.74,13.27-13.43,25.18-23.08,35.74-22.32,24.89-46.45,44.15-72.38,57.78,6.42-18.31,13.67-39.23,21.72-62.75,23.22-65.14,46.89-130.3,71.02-195.44,21.72-59.7,35.89-99.37,42.54-118.98,19.89-57,32.25-104.65,37.09-142.96v-1.81c0-11.15-2.57-20.64-7.69-28.49-4.22-6.63-11.3-9.96-21.26-9.96l-8.13.44c-10.86,2.72-21.12,12.54-30.76,29.42-9.66,15.7-19.16,37.56-28.51,65.6-18.09,53.09-30.62,96.07-37.55,128.93-26.67,107.78-48.88,216.4-66.66,325.85-.99,2.08-1.99,4.14-3,6.21-.36.88-.73,1.77-1.13,2.68-1.25-1.48-3.34-2.22-6.27-2.22l-7.24,1.36c-51.27,11.75-106.32,27.14-165.12,46.13-17.94,5.84-35.32,11.96-52.13,18.36-.57-.69-1.14-1.39-1.71-2.08-21.72-25.62-49.47-50.06-83.24-73.28-12.37-8.13-24.89-16.14-37.55-23.99-6.04-3.62-10.65-6.4-13.8-8.37-3.18-1.95-6.72-3.98-10.63-6.1-3.93-2.11-9.5-5.28-16.74-9.52l-38.91-21.71c-19.9-10.56-39.51-21.87-58.8-33.94-31.37-18.99-54.6-39.65-69.68-61.97-6.34-9.35-9.5-21.26-9.5-35.74,0-19.61,10.11-43.42,30.32-71.47l7.24-8.6c26.24-31.07,58.13-58.13,95.68-81.2,37.55-23.08,72.31-39.89,104.28-50.45,53.38-18.99,104.96-28.49,154.73-28.49,13.86,0,27.73.6,41.62,1.81,16.58,2.42,33.31,6.18,50.21,11.3,16.87,5.12,31.35,14.03,43.43,26.69,2.11,2.42,3.92,4.98,5.43,7.69l4.09,8.13c3.9,6.95,5.87,16.31,5.87,28.05,0,16.29-4.91,33.25-14.71,50.9-9.79,17.65-22.7,32.65-38.68,45.01-6.03,5.12-9.04,10.71-9.04,16.73,0,8.75,4.22,15.08,12.67,19.01,2.4,1.21,4.98,1.81,7.7,1.81,4.52,0,9.18-1.81,14.02-5.43,17.2-17.79,31.82-37.39,43.89-58.82,12.37-24.73,18.55-47.95,18.55-69.66,0-8.13-.92-16.14-2.72-23.99-4.22-15.37-10.4-28.05-18.54-38.01-11.16-12.95-24.59-22.9-40.27-29.85-29.86-12.67-65.91-19-108.12-19-51.27,0-101.34,8.29-150.2,24.89l-40.71,14.93c-72.99,30.78-133.17,68.47-180.51,113.11-8.45,8.45-16.74,17.2-24.88,26.23C13.87,290.9,0,321.35,0,348.8c0,18.09,3.62,32.58,10.86,43.43,3.62,6.04,8.3,12.07,14.03,18.09l9.05,10.41c16.88,14.78,34.98,27.59,54.28,38.45,19.3,10.86,38.9,21.26,58.81,31.21,38.91,19,70.27,35.9,94.1,50.66,5.43,3.62,12.67,8.15,21.72,13.58,22.02,15.08,42.84,32.04,62.44,50.88,8.48,8.14,16.19,16.85,23.14,26.11-80.72,32.99-147.54,72.92-200.48,119.79-14.79,12.38-26.55,26.71-35.3,42.98-6.62,12.07-9.94,24.14-9.94,36.19,0,3.91.9,10.7,2.71,20.36,1.81,9.65,12.67,19.75,32.58,30.32,16.58,6.33,33.62,9.5,51.12,9.5l22.62-1.34c18.09-1.21,40.87-7.24,68.31-18.09,37.09-14.8,67.93-35.31,92.51-61.53,24.58-26.23,36.87-55.65,36.87-88.22,0-10.25-1.21-20.65-3.61-31.21-5.64-20.24-14.31-38.81-26.01-55.74,16.41-6.52,32.32-12.23,47.72-17.11,10.25-4.22,37.85-12.81,82.78-25.78,22.33-6.33,50.67-12.95,85.05-19.9.11-.04.21-.06.32-.1-.83,1.66-1.72,3.35-2.65,5.1-.53.14-1.05.29-1.58.44l-3.17.44c-9.64,1.52-17.94,4.39-24.89,8.6-5.12,3.34-7.69,9.06-7.69,17.2,0,2.72.31,5.74.9,9.05,1.14,4.71,4.46,9.06,9.96,13.07v.05c0,3.01,1.36,6.93,4.07,11.75,3.62,6.35,9.65,9.52,18.09,9.52.82,0,1.63-.06,2.43-.17-10.49,71.99-20.48,143.96-30.02,215.96l-4.07,25.33c0,11.15,5.28,16.73,15.82,16.73,9.06,0,14.47-5.12,16.28-15.37v-24.44c2-75.25,7.19-149.84,15.58-223.77,22.71,5.92,48.58,8.89,77.62,8.89,26.54,0,60.46-3.77,101.79-11.31,37.59-6.85,85.17-24.44,142.75-52.78-1.53,7.09-2.94,14.28-4.22,21.58l-1.34,7.24c-.9,5.43-1.36,10.86-1.36,16.29,0,8.45,1.29,18.25,3.84,29.4,2.58,11.16,11.23,19.76,26.02,25.78,6.62,2.11,12.82,3.17,18.56,3.17s13.71-1.5,23.97-4.51l9.95-2.28c43.57-17.53,82.99-38.69,118.25-63.5.04.35.07.71.11,1.08.46,4.53,4.3,8.76,11.54,12.67,2.26,1.35,4.6,2.2,7.01,2.53-4.38,29.47-6.57,59.24-6.57,89.31,0,25.65,3.77,46.91,11.32,63.79,2.1,4.22,6.92,11.46,14.48,21.72,2.4,1.5,4.66,3.17,6.77,4.98,8.44,7.54,19.15,11.3,32.12,11.3,12.06,0,25.86-4.67,41.39-14.03,15.54-9.35,29.71-20.49,42.54-33.47,12.81-12.97,25.1-26.4,36.88-40.28,3.32-4.22,6.79-8.28,10.4-12.2,20.34-25.84,39.66-52.34,57.99-79.51-.96,10.14-1.45,19.29-1.45,27.48,0,16.29,3.01,31.37,9.05,45.24,9.03,19.9,24.12,29.85,45.24,29.85,9.35,0,18.69-2.57,28.04-7.69l11.78-4.98c28.34-19.6,53.44-42.45,75.32-68.53,19.88-23.73,38.84-48.25,56.84-73.6.17.18.34.36.51.54l9.96,11.77c4.83,5.43,8.75,10.03,11.76,13.8,3.01,3.76,5.43,6.71,7.24,8.82,1.54,1.8,2.75,3.05,3.64,3.74.32.39.66.81,1.03,1.24l-.73-1.03c.06.05.1.08.15.11l.69,1.05c1.68,2.02,3.86,4.54,6.54,7.55l11.3,14.03c1.38,2.08,3.04,4.35,4.96,6.78-26.11,16.17-46.61,34.43-61.5,54.75-9.64,12.97-14.47,24.58-14.47,34.83,0,14.78,7.09,27.45,21.25,38.01,9.35,5.73,19.75,8.6,31.22,8.6,3.01,0,9.11-.53,18.31-1.58,9.2-1.06,19.37-4.9,30.55-11.54,13.27-7.85,23.67-19,31.21-33.48,2.71-8.13,4.07-15.98,4.07-23.52,0-17.4-8.58-37.73-25.74-60.98,2.04-1.19,4.14-2.43,6.28-3.72,35.59-22,85.96-43.57,151.11-64.68l11.3-3.62c6.33-2.11,9.5-5.87,9.5-11.32,0-2.4-.92-4.51-2.72-6.32ZM1416.32,555.1c16.88-98.02,52.78-201.62,107.68-310.81l7.24-13.11c10.86-20.5,22.62-40.48,35.28-59.94,12.67-19.46,27.59-37.02,44.79-52.71,2.41-1.82,4.89-3.55,7.46-5.22,2.57-1.65,5.05-3.53,7.47-5.64l-.44-4.09c0-1.5.29-2.26.9-2.26,4.51,1.51,6.79,7.85,6.79,19.01,0,7.85-3.32,23.83-9.95,47.95-1.83,6.64-3.78,13.13-5.89,19.46-17.48,49.77-45.69,110.25-84.59,181.41-33.18,64.55-70.28,130-111.29,196.35-2.87,4.6-5.75,9.15-8.65,13.66,1.28-11.15,2.35-19.17,3.22-24.06ZM1310.91,202.67c16.28-26.54,35.28-50.21,57-71.03,3.01-2.71,6.18-5.26,9.5-7.68,3.32-2.41,5.12-3.77,5.45-4.09,3.01-1.8,4.66-2.85,4.96-3.16.31-.3.46-.6.46-.91-.31-.29-.69-.52-1.14-.67-.44-.14-1.06-.68-1.81-1.59-.76-.9-1.29-2.25-1.58-4.07,0-.31.45-.75,1.36-1.36l.9.45c1.81,1.21,2.94,3.09,3.4,5.66.45,2.56.69,5.95.69,10.17,0,3.93-.61,9.8-1.82,17.65-6.34,35.88-22.33,80.51-47.96,133.91-38.01,82.64-83.69,163.01-137.08,241.13-2.42,2.72-4.68,5.59-6.78,8.6-8.07,11.56-16.07,21.88-23.99,30.96,23.35-125.02,69.5-243.02,138.44-353.98ZM689.62,229.37c9.95-31.96,21.86-65.14,35.74-99.53,11.76-28.65,26.68-55.65,44.78-80.99,1.81-2.71,3.01-4.07,3.61-4.07.31,0,.46.46.46,1.36l-.91,7.25c-2.11,12.67-4.22,26.39-6.33,41.16-5.44,36.19-13.43,71.93-23.99,107.23-33.51,107.97-73.82,212.66-120.92,314.06,15.61-97.01,38.13-192.49,67.54-286.47ZM381.38,718.41c0,9.96-1.52,19.9-4.53,29.87-17.8,49.16-52.63,83.83-104.49,104.04-6.65,2.71-13.14,4.97-19.46,6.79-28.05,9.03-51.42,13.56-70.13,13.56-13.58,0-26.25-2.72-38.01-8.13-13.87-9.06-20.8-20.98-20.8-35.74,0-2.11.52-8.21,1.58-18.31,1.05-10.11,12.28-24.65,33.71-43.67,38.3-35.28,82.11-65.66,131.42-91.16,22.94-11.85,45.08-22.39,66.42-31.59,5.51,8.53,10.45,17.48,14.8,26.85,6.33,14.47,9.5,30.31,9.5,47.49ZM1641.32,628.96c.06.29.34.79.84,1.5-.52-.64-.8-1.14-.84-1.5ZM1703.73,732.89c0,6.03-1.51,11.77-4.52,17.2-8.76,12.97-20.36,22.16-34.85,27.59-5.43,2.11-10.69,3.17-15.82,3.17-9.07,0-17.96-3.17-26.7-9.51-5.12-5.73-7.68-11.6-7.68-17.64,0-1.5.44-4.67,1.34-9.51,1.81-8.44,8.29-18.85,19.46-31.21,14.1-13.55,29.37-24.44,45.77-32.67,5.48,8.43,10.74,17.66,15.76,27.69,4.82,9.06,7.24,17.35,7.24,24.89Z"/>
  <path class="cls-1" d="M1645.62,634.86s-.06-.06-.07-.08l.28.4-.2-.32Z"/>
</svg>