<?xml version="1.0" encoding="UTF-8"?>
<svg id="Layer_1" data-name="Layer 1" xmlns="http://www.w3.org/2000/svg" viewBox="0 0 1872.99 848.91">
  <defs>
    <style>
      .cls-1 {
        fill: #fdf7e4;
        stroke-width: 0px;
      }
    </style>
  </defs>
  <path class="cls-1" d="M3.18,800.95c-2.12-12.46-3.18-23.5-3.18-33.11,0-8.2.29-13.3.86-15.28,2.25-39.32,6.51-78.37,12.73-117.15,15.84-108.36,38.34-215.32,67.49-320.89,17.25-58.28,35.22-107.37,53.91-147.28,7.06-15.57,12.73-25.75,16.98-30.56,4.81-6.51,10.74-9.77,17.82-9.77,2.54,0,4.94.57,7.21,1.7,9.05,3.97,13.58,10.89,13.58,20.79,0,5.66-2.84,11.18-8.49,16.56-16.69,15-32.54,38.91-47.54,71.73-7.63,16.14-16.54,37.92-26.73,65.37-31.42,89.98-54.19,185.06-68.35,285.23-2.83,22.07-4.81,38.76-5.94,50.08-3.68,50.38-5.51,87.73-5.51,112.06s2.68,37.77,8.05,37.77c7.08,0,27.17-31.69,60.28-95.08l105.26-197.37,53.91-101.87c7.06-12.44,13.85-25.03,20.37-37.77,18.39-36.21,31.12-56.73,38.19-61.54,5.38-3.4,10.61-5.09,15.7-5.09,1.98,0,3.82.15,5.53.42,9.33,3.97,14.98,8.84,16.96,14.64,1.98,5.81,2.97,12.1,2.97,18.89v5.09c.29,1.41.43,2.97.43,4.66,0,10.76-.29,21.31-.86,31.63s-.99,20.44-1.28,30.34c.29,37.64,3.55,71.73,9.77,102.29,7.92,41.03,22.91,75.84,45,104.42,18.39,24.34,40.03,40.6,64.94,48.8l8.49,3.4c2.83.3,5.79.86,8.91,1.7,6.22,1.43,12.59,2.13,19.1,2.13,49.79,0,96.21-26.88,139.22-80.65,16.69-20.93,30.7-40.45,42.02-58.57,52.35-88,85.6-184.36,99.75-289.06,2.25-21.22,3.4-42.57,3.4-64.08,0-31.97-5.66-58.72-16.98-80.23-3.68-7.35-5.51-12.58-5.51-15.7,0-3.4,1.13-6.22,3.4-8.49,3.4-3.67,7.5-5.51,12.31-5.51,5.65,0,10.19,3.55,13.58,10.61,6.22,18.39,9.62,29.01,10.19,31.84,3.11,16.41,4.67,32.83,4.67,49.24,0,19.8-2.69,47.25-8.07,82.34,0,2.27-1.43,9.63-4.25,22.07-16.41,93.11-49.09,185.21-98.04,276.32-6.52,11.33-13.16,22.36-19.95,33.11-3.68,5.38-7.21,10.89-10.61,16.54-14.44,19.82-26.19,34.96-35.23,45.42-7.65,8.77-17.7,17.97-30.14,27.59-30.56,24.63-65.22,36.93-103.99,36.93-6.79,0-15.01-1.26-24.63-3.82l-11.03-2.55-13.58-5.94c-8.5-3.4-15.78-6.86-21.87-10.39-6.08-3.53-13.65-9.55-22.7-18.05-33.11-30.28-56.61-74.28-70.47-132.01-8.77-50.93-13.31-93.8-13.58-128.6-.86-30.85-3.12-46.28-6.79-46.28-2.83,0-15.85,18.12-39.05,54.33l-6.79,10.62c-3.12,4.54-13.03,20.66-29.71,48.38-37.35,61.69-78.25,140.78-122.68,237.27-.29,1.14-.99,2.97-2.12,5.51-5.09,9.92-16.69,34.39-34.8,73.43-9.06,18.39-16.98,31.97-23.77,40.75-9.06,11.88-20.37,17.83-33.96,17.83-14.44-5.66-22.72-14.72-24.84-27.17Z"/>
  <path class="cls-1" d="M1281.13,491.08c-1.41,0-5.24.57-11.46,1.7-6.22,1.15-12.88,1.7-19.94,1.7-25.48,0-58.02-5.65-97.63-16.98-21.79-6.22-38.92-9.34-51.36-9.34-3.69,0-7.22.28-10.61.85-34.65,6.23-58.81,33.56-72.48,81.97,2.76-13.91,5.42-27.5,7.97-40.8,9.33-48.1,14-75.12,14-81.07s-2.13-10.47-6.36-13.57c-4.25-3.11-8.64-4.68-13.16-4.68-1.99,0-5.3.63-9.97,1.91-4.68,1.28-7.16,6.71-7.43,16.33-1.23,30.56-3.46,60.83-6.72,90.83-28.36,3.42-56.86,5.11-85.45,5.11-12.17,0-24.49-.27-36.93-.84l-15.7-1.28c-13.35-1.46-25.3-3.3-35.83-5.53-7.78-8.49-17.92-14.14-30.39-16.96l-4.67-.43c-5.67,0-10.82,2.63-15.5,7.85-4.67,5.25-7,12.81-7,22.71l.23,3.31-2.77,6.02c-15,30.56-22.5,54.33-22.5,71.32,0,5.66.92,12.45,2.76,20.37,1.85,7.94,8.42,13.87,19.74,17.84,4.23,1.14,8.07,1.7,11.46,1.7,5.94,0,13.3-3.24,22.07-9.76,22.64-19.52,36.21-44.14,40.75-73.86.27-3.4.42-6.93.42-10.61,0-3.29-.17-6.4-.51-9.34,47.48-.12,100.03-3.02,157.64-8.69-4.95,40.19-11.74,79.86-20.38,119.03-2.54,11.33-3.82,19.82-3.82,25.47,0,11.04,6.08,16.56,18.25,16.56,15,0,23.63-9.9,25.9-29.72,8.76-64.52,21.49-111.91,38.2-142.18,7.63-14.43,19.52-25.33,35.66-32.69,4.52-1.97,10.32-2.96,17.39-2.96,9.61,0,32.41,3.4,68.35,10.19,15.84,2.83,39.47,5.23,70.87,7.22l7.65.42c6.79,0,13.58-.56,20.37-1.7l9.77-1.7c8.48-1.41,12.73-4.65,12.73-9.76,0-3.96-4.54-5.94-13.59-5.94ZM777.23,609.52c-.57.57-1.12.86-1.7.86-.29,0-.57-.56-.84-1.7l.43-5.53c.57-3.95,1.12-6.93,1.7-8.91,4.82-17.12,12.42-32.81,22.8-47.05.74,1.4,1.35,2.94,1.83,4.62,0,1.14.13,2.49.42,4.03.27,1.56.43,3.32.43,5.31-1.7,19.52-10.06,35.65-25.05,48.38Z"/>
  <path class="cls-1" d="M1320.35,570.98c.21.1.42.21.63.31.08-.23.17-.45.25-.69-.3.12-.59.25-.89.37Z"/>
  <path class="cls-1" d="M1651.66,595.64s-.05-.05-.07-.08l.26.37-.19-.3Z"/>
  <path class="cls-1" d="M1870.44,542.88c-1.7-1.7-3.82-2.56-6.35-2.56-1.7,0-3.4.29-5.09.85-39.91,13.31-79.23,28.31-117.99,44.99l-8.93,4.25c-13.33,6.55-26.4,13.37-39.22,20.43-.5-.58-1.01-1.16-1.52-1.75l-6.36-8.07-14.44-16.56c-14.93-16.61-27.42-32.08-37.46-46.37,1.43-1.57,2.15-3.23,2.15-4.99,0-3.11-1.84-5.65-5.53-7.63-1.41-.84-2.97-1.28-4.66-1.28-.38,0-.76.02-1.16.05-7.15-11.47-12.53-22.1-16.16-31.89-1.13-3.11-1.97-6.37-2.54-9.77-.29-1.69-.57-3.31-.86-4.88-.27-1.55-.42-3.04-.42-4.45,0-7.36.85-12.87,2.54-16.56,7.92-15,26.59-23.49,56.03-25.47,26.6,0,50.65,4.54,72.17,13.59l1.28.85c3.09,1.42,5.71,3.11,7.83,5.09,2.12,1.98,3.19,4.95,3.19,8.91l-.42,4.24c0,7.36,2.54,12.89,7.63,16.55,3.96,2.56,8.07,3.82,12.32,3.82,2.26,0,5.72-.63,10.4-1.9,4.67-1.28,8-6.58,9.98-15.92v-3.82c0-17.54-7.22-31.69-21.65-42.44-2.83-1.98-5.81-3.69-8.91-5.09-1.7-.57-3.26-1.28-4.67-2.14-27.17-9.61-55.19-14.42-84.05-14.42-3.39,0-9.06.29-16.98.84l-6.35.43c-16.71,2.56-31.42,7.78-44.16,15.7-12.73,7.94-21.22,20.81-25.45,38.63-.57,4.23-.85,8.34-.85,12.31,0,11.04,2.13,22.22,6.36,33.53,5.67,12.3,12.45,23.96,20.33,34.95-16.88,8.57-35.58,17.29-56.08,26.17-43.01,18.39-85.17,27.58-126.48,27.58-30,0-59.57-4.66-88.72-14-2.81-1-5.54-2.14-8.19-3.43-.22-.1-.43-.21-.63-.31.3-.12.59-.25.89-.37,52.65-22.34,99.58-60.02,140.8-113.04,2.26-4.23,3.4-8.2,3.4-11.88s-1.63-7.78-4.89-12.32c-3.26-4.52-8.84-6.79-16.76-6.79-6.52,0-12.17,3.83-16.98,11.47-5.38,12.45-12.6,23.63-21.65,33.53-20.94,23.35-43.58,41.42-67.91,54.21,6.02-17.18,12.82-36.81,20.38-58.88,21.78-61.12,43.99-122.25,66.63-183.37,20.38-56.02,33.68-93.23,39.91-111.63,18.66-53.48,30.26-98.19,34.8-134.13v-1.7c0-10.46-2.4-19.37-7.22-26.73-3.96-6.22-10.61-9.34-19.95-9.34l-7.63.42c-10.19,2.56-19.82,11.77-28.86,27.6-9.07,14.73-17.98,35.24-26.75,61.55-16.98,49.81-28.73,90.14-35.23,120.97-25.02,101.12-45.86,203.03-62.54,305.73-.93,1.95-1.87,3.89-2.82,5.82-2.33,5.69-5.37,12.07-9.13,19.12-.5.13-.98.27-1.48.41l-2.97.42c-9.05,1.43-16.83,4.12-23.35,8.07-4.81,3.13-7.22,8.5-7.22,16.13,0,2.56.29,5.38.84,8.49,1.07,4.42,4.18,8.5,9.34,12.27v.04c0,2.83,1.28,6.5,3.82,11.02,3.4,5.95,9.06,8.93,16.98,8.93.76,0,1.53-.05,2.28-.16-9.84,67.54-19.21,135.07-28.16,202.62l-3.82,23.77c0,10.46,4.95,15.7,14.85,15.7,8.5,0,13.58-4.81,15.28-14.42v-22.93c1.88-70.6,6.75-140.59,14.61-209.95,21.31,5.55,45.59,8.34,72.83,8.34,24.9,0,56.74-3.54,95.5-10.61,35.27-6.42,79.9-22.93,133.93-49.52,2.55,2.98,5.19,5.9,7.92,8.78l9.34,11.04c4.53,5.09,8.21,9.41,11.03,12.94,2.83,3.53,5.09,6.29,6.79,8.28,1.44,1.69,2.59,2.86,3.42,3.51.3.37.62.76.96,1.16l-.69-.96s.1.08.14.1l.65.98c1.57,1.9,3.63,4.26,6.14,7.08l10.61,13.16c1.29,1.96,2.84,4.08,4.64,6.36-24.5,15.17-43.72,32.3-57.7,51.37-9.04,12.17-13.58,23.06-13.58,32.68,0,13.87,6.66,25.76,19.94,35.66,8.77,5.37,18.54,8.07,29.29,8.07,2.83,0,8.55-.5,17.19-1.49,8.62-.99,18.17-4.6,28.65-10.82,12.45-7.36,22.21-17.83,29.29-31.42,2.54-7.63,3.82-15,3.82-22.07,0-16.32-8.05-35.4-24.15-57.22,1.91-1.11,3.89-2.28,5.89-3.49,33.39-20.65,80.65-40.88,141.78-60.68l10.61-3.4c5.94-1.98,8.91-5.51,8.91-10.62,0-2.25-.85-4.23-2.56-5.93ZM1389.45,215.2c9.34-29.99,20.52-61.12,33.54-93.38,11.03-26.88,25.04-52.21,42.01-75.98,1.7-2.54,2.83-3.82,3.39-3.82.29,0,.43.43.43,1.28l-.85,6.8c-1.98,11.88-3.96,24.76-5.94,38.61-5.1,33.95-12.6,67.49-22.51,100.6-31.43,101.3-69.26,199.53-113.45,294.66,14.65-91.01,35.77-180.6,63.37-268.77ZM1647.63,590.11c.06.27.32.74.79,1.41-.49-.6-.75-1.07-.79-1.41ZM1706.19,687.62c0,5.66-1.42,11.04-4.24,16.13-8.21,12.17-19.11,20.79-32.69,25.89-5.09,1.98-10.03,2.97-14.84,2.97-8.5,0-16.85-2.97-25.05-8.92-4.81-5.37-7.21-10.88-7.21-16.55,0-1.41.42-4.38,1.26-8.92,1.7-7.92,7.78-17.69,18.25-29.29,13.23-12.71,27.56-22.93,42.94-30.65,5.15,7.91,10.07,16.57,14.79,25.98,4.52,8.5,6.79,16.28,6.79,23.35Z"/>
</svg>