<?xml version="1.0" encoding="UTF-8"?>
<svg id="Layer_1" data-name="Layer 1" xmlns="http://www.w3.org/2000/svg" viewBox="0 0 1734 509.65">
  <defs>
    <style>
      .cls-1 {
        fill: #FDF7E4;
        stroke-width: 0px;
      }
    </style>
  </defs>
  <path class="cls-1" d="M609.43,70.43c2.32,7.14,2.95,15,1.91,22.3-2.25,14.75-9.56,26.31-17.14,35.94-3.83,4.84-7.95,9.35-12.01,13.39-4.01,4.22-8.18,8.26-12.46,12.18-8.5,7.92-17.44,15.31-26.7,22.24-18.53,13.87-38.24,25.98-58.77,36.3-19.44,9.92-41.44,19.37-64.83,27.47-23.36,8.21-48.36,14.71-72.84,19.87-36.08,7.51-71.64,12.63-102.96,15.49,3.91.78,7.82,1.56,11.76,2.53,11.12,2.72,22.25,6.08,33.49,10.01,11.17,3.98,22.84,8.84,33.97,16.69,9.66-1.08,19.3-2.1,28.97-2.87,45.74-3.63,91.59-4.1,137.3-1.71,34.06,1.8,58.3,6.26,73.29,10.77,15,4.54,20.86,8.9,18.55,12-4.74,6.53-41.4,6.75-105.35,3.96-43.57-1.77-87.3-.89-130.69,3.01,1.76,3.68,3.16,7.57,4.06,11.62,3.58,15.65.13,31.22-6.35,44.03-3.3,6.45-7.42,12.39-12.26,17.71-4.74,4.47-9.29,9.38-14.21,13.32-9.75,8.09-19.84,15-29.88,21.31-20,12.53-40.99,22.58-62.31,31.68-21.34,9.06-43.13,16.91-65.44,23.29-22.3,6.4-44.98,11.74-68.47,14.76l-17.83,1.67c-6.12.07-12.14.39-18.35.2l-9.47-.76-4.75-.41c-1.96-.32-3.89-.7-5.77-1.21-7.51-2.07-14.53-5.48-20.76-11-6.12-5.38-11.74-13.57-12.9-23.46-.26-2.29-.17-4.21-.2-6.34-.05-2.1.05-4.15.5-6.09l1.16-5.9c.59-1.82,1.26-3.59,1.92-5.37,5.63-14.09,14.72-23.86,23.81-32.37,18.57-16.65,38.92-28.7,59.61-39.49,20.74-10.71,41.98-19.88,63.52-28.07,21.52-8.23,43.35-15.48,65.44-21.87,19.94-5.8,40.12-10.82,60.56-15.01-6.17-2.36-12.43-4.59-18.46-6.78-20.44-7.14-39.79-12.38-57.02-15.75-15.25-3.05-26.97-4.93-33.26-7.11-5.66,12.26-10.96,24.69-15.84,37.3-6.98,18.29-16.17,24.44-22.4,21.35-6.02-3.01-9.19-15.83-1.86-34.3,5.26-13.37,10.97-26.54,17.07-39.53.01-3.14-.06-6.38-.35-9.82-.93-11.22-3.84-24.27-9.1-38.75-3.57-9.92-8.13-19.74-13.11-29.57-4.93-9.84-10.99-20.44-14.92-33.31-4.12-12.72-4.39-28.67.31-41.74,4.41-13.3,12.24-24.56,21.65-33.85,19.25-18.44,42.7-27.45,64.2-35.34,21.87-7.99,44.18-14.51,66.65-20.02,45.05-10.97,90.52-17.72,136.36-22.36,23.01-2.24,46.4-3.27,69.98-2.18,23.56,1.36,47.45,4.85,70.4,12.9,5.68,1.74,11.11,4.32,16.65,6.53,5.32,2.75,10.86,5.08,15.94,8.32,10.33,5.77,20.88,13.14,29.55,23.61,4.32,5.23,8.09,11.5,10.45,18.63ZM210.77,463.98c-2.56-.94-37.91,14.54-93.03,26.23-3.45.69-6.97,1.41-10.55,2.13-3.62.56-7.29,1.13-11.03,1.71-7.45,1.38-15.29,1.8-23.29,2.65-8.05.18-16.32.84-24.8-.16-8.35-.02-17.72-2.58-24.94-8.21-3.64-2.79-6.87-6.42-8.85-10.85-1.04-2.18-1.59-4.62-1.89-7.02.03-2.36-.19-4.77.08-7.12,1.13-9.53,5.9-18.06,11.57-25.43,11.77-14.59,27-25.79,42.62-35.8,31.52-19.8,65.61-34.59,97.9-46.96,32.38-12.28,63.29-21.68,90.11-28.54,13.2-3.4,25.41-6.13,36.34-8.28-.72-.34-1.39-.7-2.12-1.03-22.63,4.02-49.03,10.27-77.55,18.63-29.44,8.77-61.14,19.77-92.78,33.77-15.81,7.02-31.6,14.8-46.89,23.75-15.23,9.02-30.21,18.92-43.17,31.79-6.41,6.45-12.55,13.52-16.77,22.35-4.17,8.86-6.59,19.02-3.2,30.09,4.05,10.7,12.75,17.11,21.39,20.73,2.22.88,4.45,1.67,6.78,2.19,2.33.6,4.72.91,6.69,1.01,4.16.32,8.28.63,12.36.94,32.21-.04,60.3-6.31,83.6-12.36,11.7-2.9,22.02-6.48,31.15-9.33,8.99-3.27,16.78-5.89,22.9-8.48,12.28-5.12,18.62-8.11,17.37-8.41ZM328.29,333.78c-.45-.7-.93-1.33-1.39-1.97-1.41.16-2.77.35-4.17.51,2.76,3.98,5.15,8.83,6.21,14.77,2.18,11.15-1.47,26.54-12.21,39.47-11.5,12.78-28.33,25.22-47.66,36.48-38.88,22.49-88.3,42.77-142.82,55.9-6.84,1.44-13.74,2.9-20.69,4.37-6.98,1.01-14.01,2.44-21.08,3.13-14.11,1.71-28.6,2.14-42.24.56-5.9-.97-11.92-3.77-15.96-7.84-2.01-2.02-3.59-4.29-4.32-6.69-.81-2.2-.68-5.29-.53-8.24.53-5.97,3.59-12.02,7.47-17.6,3.8-5.68,8.85-10.82,14.12-15.69,21.74-19.25,48.43-33.58,74.86-46.18,26.63-12.48,53.8-22.86,80.44-31.74,36.84-12.25,72.59-21.48,105.98-27.26-1.42-.95-2.89-1.87-4.42-2.76-7.8,1.29-15.65,2.7-23.64,4.35-48.82,10.38-101.21,26.27-152.59,48.65-25.54,11.39-51.1,24.27-73.91,41.28-11.17,8.63-22.17,18.19-29.29,30.49-3.69,6.02-5.9,13.04-5.75,20.05-.43,7.14,3.66,13.75,9,18.13,5.4,4.44,12.12,7.21,19.01,8.02,6.95.54,13.86,1.34,20.78.91,13.84-.07,27.45-2.05,40.79-4.2,26.65-4.67,52.08-11.88,75.96-20.08,47.66-16.53,89.77-37.05,120.36-60.96,7.72-5.85,14.28-12.39,20.09-18.72,5.42-6.62,9.25-13.9,11.41-21.05,4.54-14.41,1.75-27.74-3.8-36.08ZM313.65,333.44c-.49.07-1.01.12-1.5.19-10.64,1.57-21.3,3.47-31.94,5.67-21.28,4.42-42.44,9.91-63.38,16.12-41.78,12.62-83.01,27.99-121.21,48.01-18.88,10.12-37.39,21.47-51.84,35.35-7.14,6.86-13.04,14.62-15.44,21.86-.46.91-.49,1.78-.66,2.64-.11.86-.45,1.73-.45,2.56.14,1.55-.11,3.54.19,4.27.42,1.96,2.05,4.33,4.72,6.45,2.62,2.04,6.13,3.71,9.63,4.49,1.45.41,4.1.53,6.51.72l7.26.6c5,.03,10.1-.17,15.14-.22l15.44-1.45c20.68-2.63,41.39-7.35,61.82-13.04,40.73-11.78,80.85-27.6,117.11-48.64,8.66-4.92,17.24-10.7,25.67-16.96,3.92-3.35,8.47-6.41,12.03-10.1,3.55-3.65,7.8-7.26,10.29-10.87,5.57-7.41,9.16-16.66,9.46-25.17.35-8.54-2.63-15.86-8.73-22.38-.03-.04-.08-.07-.12-.1ZM605.28,75.84c-2.05-8.75-6.78-16.39-12.35-22.59-5.6-6.24-12.05-11.3-18.79-15.67l-10.24-6.06c-3.45-1.96-7.09-3.57-10.64-5.36-28.96-13.45-61.12-18.74-92.56-19.65-31.57-.92-62.8,2.25-93.07,6.33-30.31,4.07-60.02,9.19-88.44,15.73-28.42,6.48-55.5,14.54-80.58,23.82-12.5,4.63-24.67,9.5-35.97,15.56-11.26,6.07-21.6,13.41-29.74,22.46-8.09,9.01-14,19.42-16.75,30.3-2.92,10.85-2.01,22.03.92,31.33,2.86,9.4,7.08,17.36,10.86,24.58,3.85,7.18,7.29,13.7,10.16,19.74,5.78,12.03,9.43,21.84,11.5,28.63,1.21,3.93,1.96,6.79,2.39,8.53-2.07-9.65-5.78-21.23-11.55-34.27-3.05-6.97-6.68-14.29-10.68-22.07-3.94-7.81-8.23-16.21-10.96-25.79-2.83-9.51-3.29-20.47-.18-30.94,2.98-10.49,9.04-20.35,16.96-28.81,16.17-17.07,39.59-26.86,63.56-35.4,48.27-17.5,103.23-29.18,160.16-36.66,28.47-3.75,57.51-6.92,86.68-6.99,29.11-.14,58.56,2.97,85.9,12.35,13.65,4.65,26.67,10.88,38.64,18.55,11.73,7.72,22.84,17.82,27.16,31.35,2.08,6.69,2.1,13.92.36,20.57-1.66,6.71-4.86,12.87-8.56,18.5-7.5,11.31-17.15,20.57-26.48,29.54-37.96,35.66-80.63,58.49-117.51,73.9-37.05,15.43-68.84,23.81-90.36,29.16-21.56,5.38-33.01,8.06-31.12,8.65,1.87.48,18.73-1.74,46.59-7.94,27.81-6.33,66.78-17.33,109.81-38.66,21.48-10.66,43.88-24.07,65.49-41.03,10.86-8.41,21.38-17.87,31.45-28.19,10.02-10.18,20.57-21.87,26.26-37.72,2.84-7.86,3.68-17.08,1.68-25.79ZM166.06,225.82c11.66-21.05,24.33-41.52,38.05-61.28,15.09-21.71,31.22-42.73,48.74-62.57,16.37-18.93,39.33-46.13,60.52-55.74,12.25-5.69,21.58-.89,14.28,11.51-12.24,20.33-35.52,40.36-52.98,60.45-17.32,19.89-33.54,40.72-48.52,62.41-19.26,27.95-36.56,57.28-51.55,87.76,4.39-2.12,11.94-4.48,23.2-6.99,38.44-8.71,84.47-16.34,131.54-26.1,23.48-5,47.27-10.38,69.97-17.52,22.85-7.08,44.89-15.65,65.23-25.45,20.17-9.83,39.6-21.08,57.57-34.18,9.06-6.47,17.59-13.56,25.91-20.86,4-3.81,8.18-7.45,11.98-11.45,3.89-3.97,7.81-7.86,11.03-11.81,6.63-7.86,11.75-16.32,13.11-23.82,1.45-7.43-.51-13.85-5.95-20.75-5.48-6.8-13.56-12.81-22.97-17.97-9.17-5.23-18.87-9.68-29.09-12.95-40.91-13.56-86.62-12.84-131.65-8.28-45.47,4.83-90.87,11.81-134.84,23.02-22,5.59-43.64,12.35-64.74,20.33-20.85,7.87-40.3,17.46-52.07,32.4-5.91,7.44-10.04,16.06-11.08,24.55-1.22,8.3.91,17.01,5.09,26.61,4.1,9.44,10.1,19.83,15.17,30.81,5.12,10.92,9.76,22.36,13.16,34.45.33,1.15.59,2.29.89,3.43ZM136.39,317.01c.17-.4.4-.92.58-1.34-.03-.04-.06-.08-.08-.13-.32.93-.5,1.47-.5,1.47ZM586.45,105.32c-5.34,9.75-12.51,17.71-19.11,24.57-3.21,3.51-6.35,6.62-9.27,9.45-2.86,2.89-5.56,5.43-8.02,7.65-9.71,9.05-15.15,13.57-13.83,13.55,1.17-.19,9.76-5.81,22.62-17.09,3.15-2.88,6.74-5.95,10.29-9.6,3.62-3.59,7.57-7.42,11.3-11.86,7.37-8.73,15.35-19.9,16.62-33.72.58-6.83-.98-14.02-4.72-20.44-3.67-6.45-9.13-12.15-15.39-17.13-12.76-9.74-28.2-17.62-44.8-23.3-33.4-11.51-71.6-13.6-108.99-11.16-75,5.69-149.21,20.36-202.12,38.36-26.51,8.95-48.16,17.76-61.29,26.26-6.65,4.19-11.34,8.07-14.37,10.85-2.99,2.79-4.42,4.42-4.42,4.42,8.07-8.45,23.24-18.67,45-26.97,21.78-8.52,48.61-17.16,78.65-24.42,30.04-7.3,63.33-13.18,97.84-17.66,34.53-4.45,70.08-8.11,104.4-6.16,34.23,1.77,67.14,9.76,93.2,25.12,13.12,7.29,24.3,16.6,29.24,27.39,5.16,10.65,2.56,22.29-2.81,31.91ZM268.89,102.01c7.62-8.81,13.82-15.97,18.11-20.93,4.14-5.01,6.05-7.97,5.08-8.25-1.84-.47-16.18,11.9-34.85,32.45-18.68,20.52-40.98,49.71-60.04,80.75-10.74,17.29-20.39,35.08-28.63,51.82.41,2.62.72,5.19.96,7.72,12.57-23.85,28.18-49.81,44.76-73.64,19.05-27.62,39.34-52.31,54.62-69.93ZM179.63,242.99c8.78-15.66,19.3-34.06,30.47-50.9,5.33-8.58,11.11-16.57,16.14-24.14,5.23-7.43,10.01-14.23,14.06-19.97,8.32-11.3,13.19-18.77,11.77-19.16-1.33-.33-9.16,7.93-19.32,21.14-10.29,13.11-22.45,31.48-33.67,50.25-10.89,18.99-20.9,38.33-27.45,53.25-.6,1.25-1.13,2.43-1.66,3.62-.02,1.48-.05,2.95-.14,4.38,2.84-5.48,6.12-11.72,9.8-18.47ZM305.64,315.65c.28-.04.57-.1.84-.14-.71-.22-1.1-.23-.89.1.01.01.05.04.05.05ZM319.11,323.38c-1.22-1.03-2.41-1.95-3.53-2.75-1.13.15-2.22.25-3.35.4-.05,0-.1.02-.16.02.9.76,1.83,1.54,2.87,2.48.13.12.26.26.4.38,1.27-.19,2.51-.34,3.78-.53ZM345.55,310.44c-4.07.3-8.91.67-14.32,1.16.14.14.29.25.44.39,8.92-1.07,13.88-1.55,13.89-1.55ZM346.61,317.35c-3.03.27-6.15.59-9.23.87.6.73,1.23,1.43,1.8,2.2.11.15.2.31.31.46,2.74-.28,5.52-.62,8.22-.83,44.74-4.43,82.27-5.05,108.47-4.88,13.11.07,23.41.36,30.42.63,7.02.26,10.76.41,10.76.41-20.12-1.45-50.67-2.9-88.65-2.13-18.99.39-39.84,1.35-62.1,3.26Z"/>
  <path class="cls-1" d="M721.12,334.66c-10.27,2.54-20.59,3.22-30.61,2.63-5.01-.29-9.96-.91-14.83-1.8-2.44-.44-4.85-.97-7.26-1.53-2.88-.7-5.82-1.7-8.6-2.97-5.5-2.51-9.9-5.83-13.47-8.53-1.51-1.16-4.28-3.22-6.41-5.54-2.23-2.29-4.28-5.01-5.86-7.9-1.35-2.33-2.51-4.89-3.51-7.47-4.62,3.63-9.24,7.27-13.85,10.89-12.38,9.68-24.72,19.32-37.2,29.06-.81.64-1.69.99-2.61,1.22-.07.08-.13.16-.19.23-6.27,7-26.82-10.96-21.37-16.96,7.53-8.47,14.39-17.74,20.42-27.49,2.96-4.78,5.71-9.68,8.29-14.65,2.5-4.75,2.96-12.78,10.71-13.94,4.52-.68,13.66,2.83,16.31,7.74.68,1.27,1.07,2.46,1.35,3.62l6.51-5.05c1.49-1.14,3.01-2.55,4.61-3.99l2.46-2.17c1.68-1.14,3.51-2.86,8.67-3.92,2.49-.48,6.61-.4,10.32,1.48,3.59,1.68,6.47,5.15,7.59,7.73,2.14,5.08,1.57,7.3,1.49,8.09,2.06,5.35,2.17,10.45,3.74,12.51.51.9,1.19,1.56,1.88,2.32.44.35.75.74,1.29,1.1l2.04,1.57c3.44,2.61,6.09,4.41,8.33,5.35,1.18.51,2.22.87,3.71,1.22,1.88.44,3.77.83,5.66,1.19,3.78.68,7.58,1.14,11.36,1.36,7.56.43,15.03-.1,22.11-1.83,5.05-1.26,10.26,3.78,13.04,10.08,2.75,6.16,1.59,14.33-6.12,16.34ZM590.36,298.45c5.48-9.99,8.53-18.54,5.81-19.6-3.3-1.3-10.32,12.81-17.62,26.94-.52,1.04-1.05,2.07-1.57,3.1,4.46-3.48,8.93-6.96,13.38-10.44ZM590.66,313.1c2.52-4.02,4.6-7.99,5.72-11.07-4.04,3.74-7.9,7.51-11.41,11.03-1.37,2.92-2.74,5.83-3.98,8.46,2.6-1.96,5.4-4.11,8.36-6.39.44-.68.89-1.35,1.31-2.02ZM623.88,293.66c-1.88-1.98-12.24,6.21-21.69,15.29-.75.71-1.47,1.43-2.21,2.15-.42.7-.81,1.41-1.24,2.1-1.83,2.96-3.74,5.86-5.69,8.72,4.56-3.3,10-7.46,15.11-11.53,9.39-7.52,17.58-14.75,15.72-16.73ZM635.04,273.98c-1.37.19-2.66.59-3.73,1.1-.43.22-.87.45-1.33.69-.3.16-.62.34-.94.51-.64.38-1.33.78-2.06,1.21-1.45.87-3.04,1.93-4.72,3.12-3.1,2.16-6.56,4.83-10.14,7.74-1.05,3.14-2.98,5.95-4.36,8.72-1.07,2.17-2.22,4.28-3.38,6.4,1.17-.9,2.34-1.82,3.5-2.72,7.54-5.89,14.64-11.53,19.81-16.09.31-2.81,1.14-5.35,2.84-7.51,1.03-1.29,2.65-2.36,4.51-3.16ZM719.84,322.77c-4.14.7-12.35,2.34-22.37,2.23-9.96-.15-21.8-1.35-32.27-5.39-5.13-2.32-9.45-5.76-13.47-8.78-4.09-3.09-6.94-7.09-8.73-10.77-1.02-2.28-1.81-4.28-2.49-6.02l-.29.21c-1.48,1.06-2.94,2.1-4.33,3.17.44,2.56,1.24,5.54,2.95,8.86,1.35,2.65,3.29,5.38,5.68,7.68,1.13,1.22,2.54,2.25,3.73,3.23,1.14.83,2.3,1.68,3.49,2.55,4.74,3.5,11.74,7.29,18.68,8.28,12.59,2.21,25.42,1.59,34.6-.47,4.6-.98,8.32-2.17,10.86-3.16,2.56-.92,3.94-1.62,3.95-1.62ZM658.23,313.02c2.16,1.65,4.79,3.35,7.8,4.53,2.99,1.26,6.36,1.74,9.97,2.16,7.1.81,14.17.53,19.31-.19,5.16-.7,8.41-1.66,8.41-1.66-4.59-.26-18.38-.65-30.63-3.73-5.15-1.11-9.45-3.8-13.49-6.17-.98-.56-1.91-1.09-2.76-1.52-.8-.4-1.35-.63-1.95-.81-1.13-.35-1.89-.42-2.33.12-.97,1.05,1.23,3.89,5.67,7.26Z"/>
  <path class="cls-1" d="M888.45,338.31c-22.93,8.07-46.88,14.21-71.66,16.33-12.38,1.04-24.93,1.07-37.45-.17-6.26-.53-12.5-1.57-18.69-2.82-3.17-.74-5.99-1.25-9.45-2.19-3.46-.99-6.89-2.21-10.35-3.92-3.39-1.68-6.84-3.77-10.18-6.85-3.23-2.89-6.87-7.87-8.28-12.93-1.49-5.16-1.45-10.78.28-15.9,1.81-5.42,4.44-8.88,7.07-11.96,2.65-3.01,5.38-5.36,8-7.45,2.52-1.93,4.93-3.8,7.5-5.57,5.07-3.57,10.3-6.91,15.74-9.9,10.25-5.75,22.96-12.19,36.34-15.96,6.66-1.9,13.42-3.19,19.84-3.64,3.31-.16,5.98-.32,10.13,0,3.99.37,9.11,1.42,13.54,5.04,2.42,2.06,3.84,4.3,4.63,6.51,2.41,1.48,4.37,3.68,5.56,5.9.9,1.69,1.51,3.27,1.93,5.13.42,2.05.58,4.2.52,6.35-.14,6.68-4.59,12.58-8.93,16.78-7.96,7.47-15.59,10.93-23.6,14.22-7.98,3.1-16.17,5.2-25.01,6.16-4.44.45-9.05.6-14.19,0-5.04-.77-11.28-1.77-17.95-7.55-2.11-2.07-3.01-4.42-3.11-6.61-4.04,2.88-8.2,6.05-10.24,8.35-1.18,1.22-1.88,2.63-1.78,2.51-.01.04.07.08.07.08.13.16-.28-.35.58.54.75.7,2.18,1.64,3.93,2.45,1.75.82,3.8,1.56,5.93,2.13l7.78,1.75c5.31,1.01,10.67,1.86,16.1,2.31,10.84.99,21.88.88,32.93-.14,22.13-2.02,44.24-7.78,65.76-15.61,15.93-5.9,25.66-3.08,27.75,3.58,2.02,6.47-4.16,16.99-21.01,23.07ZM889.58,325.3c-10.21,3.26-30.8,10.55-56.92,14.77-13.03,2.08-27.45,3.25-42.22,2.58-7.39-.22-14.86-1.14-22.24-2.38-7.32-1.45-14.84-2.66-21.57-5.92-3.32-1.65-6.52-3.66-8.95-6.47-2.47-2.74-3.96-6.41-3.8-10.05.35-7.56,6.08-13.02,11.06-17.17,10.45-8.36,20.93-14.84,30.17-19.57,18.48-9.5,31.44-12.93,30.07-14.6-1.16-1.38-18.68,1.13-41.22,13.1-5.61,2.98-11.45,6.6-17.33,10.84-5.53,4.31-12.64,8.57-17.57,18.02-2.52,5.05-3.05,11.24-1.05,16.68.92,2.72,2.57,5.26,4.44,7.36,1.8,2.04,3.79,3.64,5.83,4.97,8.16,5.42,17.1,6.89,25.02,8.4,32.92,5.74,65.77.1,88.75-6.73,11.57-3.42,20.96-6.89,27.43-9.54,6.49-2.59,10.11-4.27,10.11-4.27ZM753.95,299.31c-.62-.42-3.01.71-6.68,3.09-3.38,2.38-8.75,6.22-10.81,12.46-.99,3.09-.54,6.89,1.48,9.97,2.01,3.06,5.53,5.57,9.42,7.41,3.98,1.83,8.26,3.07,12.98,3.85,4.6,1.01,9.35,1.61,14.09,2.17,19.03,1.95,38.09.06,51.98-2.79,6.97-1.32,12.68-2.88,16.68-3.91,3.96-1.17,6.23-1.84,6.23-1.84-6.27,1.07-18.9,3.54-34.36,4.77-15.43,1.17-33.73.72-50.55-2.87-2.1-.45-4.19-.9-6.25-1.35-1.9-.46-3.69-1.02-5.42-1.66-3.41-1.28-6.49-2.95-8.46-4.75-3.7-3.17-3.76-7.13-1.65-10.71,2.34-3.95,6.01-7.2,8.39-9.56,2.38-2.41,3.55-3.86,2.93-4.27ZM825.1,288.74c-5.75,3.81-13.77,7.77-21.7,10.62-7.94,2.88-15.94,4.63-21.55,4.54-2.8-.02-4.93-.49-6.26-1-1.23-.54-1.93-1.07-1.91-1.1.88,2.29,5.92,4.85,12.81,5.16,6.85.42,15.16-.84,23.07-3.25,7.91-2.4,15.54-5.96,21-10.17,5.71-4.17,7.87-9.1,6.39-11.74-.56-1.35-1.33-1.88-2.15-1.78-.67.08-1.16.56-1.58,1.22-1.13,1.91-1.83,3.19-8.13,7.53ZM832.14,297.84c-1.75-1.85-12.13,4.92-23.93,9.36-5.85,2.28-11.92,4.23-16.76,5.23-4.81,1.06-8.39,1.19-8.39,1.19,2.33.73,7.06,1.2,12.57.76,5.5-.44,11.8-1.72,17.56-3.65,11.59-3.72,20.83-10.76,18.94-12.89ZM807.45,285.04c-8.18,2.57-16.53,5.48-24.23,9.01.44.11.9.2,1.39.25,2.37.34,5.31.32,8.32.04,6.07-.64,12.5-2.22,18.44-4.58,5.74-2.22,11.55-5.46,14.65-8.5.8-.86-.32-1.12-.42-1.2-.06,0-.05,0,.02,0,.08-.05.17-.63.41-.75.07-.08.17-.12.26-.16-5.02,1.81-12.72,3.86-18.84,5.9ZM831.47,276.32c.07-.07.17-.15.25-.24.07-.08.02.01.17-.23-.13.03-.26.05-.38.08.05.13.02.26-.04.39Z"/>
  <path class="cls-1" d="M1068.6,338.31c-22.93,8.07-46.88,14.21-71.66,16.33-12.38,1.04-24.93,1.07-37.45-.17-6.26-.53-12.5-1.57-18.69-2.82-3.17-.74-5.99-1.25-9.45-2.19-3.46-.99-6.89-2.21-10.35-3.92-3.39-1.68-6.84-3.77-10.18-6.85-3.23-2.89-6.87-7.87-8.28-12.93-1.49-5.16-1.45-10.78.28-15.9,1.81-5.42,4.44-8.88,7.07-11.96,2.65-3.01,5.38-5.36,8-7.45,2.52-1.93,4.93-3.8,7.5-5.57,5.07-3.57,10.3-6.91,15.74-9.9,10.25-5.75,22.96-12.19,36.34-15.96,6.66-1.9,13.42-3.19,19.84-3.64,3.31-.16,5.98-.32,10.13,0,3.99.37,9.11,1.42,13.54,5.04,2.42,2.06,3.84,4.3,4.63,6.51,2.41,1.48,4.37,3.68,5.56,5.9.9,1.69,1.51,3.27,1.93,5.13.42,2.05.58,4.2.52,6.35-.14,6.68-4.59,12.58-8.93,16.78-7.96,7.47-15.59,10.93-23.6,14.22-7.98,3.1-16.17,5.2-25.01,6.16-4.44.45-9.05.6-14.19,0-5.04-.77-11.28-1.77-17.95-7.55-2.11-2.07-3.01-4.42-3.11-6.61-4.04,2.88-8.2,6.05-10.24,8.35-1.18,1.22-1.88,2.63-1.78,2.51-.01.04.07.08.07.08.13.16-.28-.35.58.54.75.7,2.18,1.64,3.93,2.45,1.75.82,3.8,1.56,5.93,2.13l7.78,1.75c5.31,1.01,10.67,1.86,16.1,2.31,10.84.99,21.88.88,32.93-.14,22.13-2.02,44.24-7.78,65.75-15.61,15.93-5.9,25.66-3.08,27.75,3.58,2.02,6.47-4.16,16.99-21.01,23.07ZM1069.73,325.3c-10.21,3.26-30.8,10.55-56.92,14.77-13.03,2.08-27.45,3.25-42.22,2.58-7.39-.22-14.86-1.14-22.24-2.38-7.32-1.45-14.84-2.66-21.57-5.92-3.32-1.65-6.52-3.66-8.95-6.47-2.47-2.74-3.96-6.41-3.8-10.05.35-7.56,6.08-13.02,11.06-17.17,10.45-8.36,20.93-14.84,30.17-19.57,18.48-9.5,31.44-12.93,30.07-14.6-1.16-1.38-18.68,1.13-41.22,13.1-5.61,2.98-11.45,6.6-17.33,10.84-5.53,4.31-12.64,8.57-17.57,18.02-2.52,5.05-3.05,11.24-1.05,16.68.92,2.72,2.57,5.26,4.44,7.36,1.8,2.04,3.79,3.64,5.83,4.97,8.16,5.42,17.1,6.89,25.02,8.4,32.92,5.74,65.77.1,88.75-6.73,11.57-3.42,20.96-6.89,27.43-9.54,6.49-2.59,10.11-4.27,10.11-4.27ZM934.1,299.31c-.62-.42-3.01.71-6.68,3.09-3.38,2.38-8.75,6.22-10.81,12.46-.99,3.09-.54,6.89,1.48,9.97,2.01,3.06,5.53,5.57,9.42,7.41,3.98,1.83,8.26,3.07,12.98,3.85,4.6,1.01,9.35,1.61,14.09,2.17,19.03,1.95,38.09.06,51.98-2.79,6.97-1.32,12.68-2.88,16.68-3.91,3.96-1.17,6.23-1.84,6.23-1.84-6.27,1.07-18.9,3.54-34.36,4.77-15.43,1.17-33.73.72-50.55-2.87-2.1-.45-4.19-.9-6.25-1.35-1.9-.46-3.69-1.02-5.42-1.66-3.41-1.28-6.49-2.95-8.46-4.75-3.7-3.17-3.76-7.13-1.65-10.71,2.34-3.95,6.01-7.2,8.39-9.56,2.38-2.41,3.55-3.86,2.93-4.27ZM1005.25,288.74c-5.75,3.81-13.77,7.77-21.7,10.62-7.94,2.88-15.94,4.63-21.55,4.54-2.8-.02-4.93-.49-6.26-1-1.23-.54-1.93-1.07-1.91-1.1.88,2.29,5.92,4.85,12.81,5.16,6.85.42,15.16-.84,23.07-3.25,7.91-2.4,15.54-5.96,21-10.17,5.71-4.17,7.87-9.1,6.39-11.74-.56-1.35-1.33-1.88-2.15-1.78-.67.08-1.16.56-1.58,1.22-1.13,1.91-1.83,3.19-8.13,7.53ZM1012.29,297.84c-1.75-1.85-12.13,4.92-23.93,9.36-5.85,2.28-11.92,4.23-16.76,5.23-4.81,1.06-8.39,1.19-8.39,1.19,2.33.73,7.06,1.2,12.57.76,5.5-.44,11.79-1.72,17.56-3.65,11.59-3.72,20.83-10.76,18.94-12.89ZM987.6,285.04c-8.18,2.57-16.53,5.48-24.23,9.01.44.11.9.2,1.39.25,2.36.34,5.31.32,8.32.04,6.07-.64,12.5-2.22,18.44-4.58,5.74-2.22,11.55-5.46,14.65-8.5.8-.86-.32-1.12-.42-1.2-.06,0-.05,0,.02,0,.08-.05.17-.63.41-.75.07-.08.17-.12.26-.16-5.02,1.81-12.72,3.86-18.84,5.9ZM1011.62,276.32c.07-.07.17-.15.25-.24.07-.08.02.01.17-.23-.13.03-.26.05-.38.08.05.13.02.26-.04.39Z"/>
  <path class="cls-1" d="M1281.31,341.58c-25.28,8.69-51.57,14.19-78.11,16.41-3.32.34-6.65.44-9.97.67-1.66.12-3.32.17-4.99.22l-6.36.2c-5.98.04-11.78-.21-17.67-.29l-2.19-.05-1.62-.47-3.24-.93-6.48-1.86c-3.74-1.38-6.53-3.71-8.95-6.63-1.17-1.49-2.18-3.21-2.86-5.26-.77-2.05-.85-4.35-.75-6.1.21-1.77.56-2.88,1-4.06.53-1.26,1.09-2.53,2.05-4.08,1.71-3.03,5.69-6.7,11.34-9.84,5.18-3.1,10.31-6.45,14.86-9.6l2.65-1.86.43-.34c.53-.47,1.11-.84,1.39-1.39.38-.63-.43-1.28-1.12-1.17-.68,0-1.29.23-1.81.4-.12.04-.25.11-.31.16-.91.25-2.67.74-4.01,1.19-2.88.87-5.88,1.92-8.93,2.99-6.21,2.29-12.64,4.66-18.98,7.01-12.91,4.69-26.41,8.72-37.96,8.61-13.75-.27-19.08-9.22-7.82-16.59,9.27-6.35,20.67-11.95,33.39-17.1,6.34-2.56,12.99-4.98,19.77-7.18,3.37-1.12,6.81-2.14,10.22-3.15,1.72-.48,3.44-.96,5.14-1.44,2.43-.6,4.84-1.21,7.23-1.8,3.09-.72,6.11-1.14,9.17-1.68l4.58-.77c1.44-.1,2.75-.02,4.13-.04,2.62.12,5.69-.22,7.93.32,2.35.42,4.52,1.05,6.51,1.89,3.95,1.69,7.24,4.06,9.87,7.78,2.7,3.71,3.92,8.86,3.75,12.81-.22,4.04-1.16,7.49-3.62,11.38-.71.99-1.21,1.95-2.08,2.96l-2.74,3.06c-2.22,2.03-4.53,4.03-7.11,5.98l-7.7,5.81-5.16,3.71c-.3.22-.08.08-.14.14.04.03.04,0,0,.04,0,0-.07.05.11.08,6.18-.16,12.37-.48,18.53-1.07,24.66-2.21,49.1-7.5,72.5-15.82,17.25-6.32,27.51-4.04,29.68,2.63,2.07,6.39-4.85,17.74-23.53,24.15ZM1283.1,328.39c-11.13,3.65-33.82,11-62.4,15.03-14.33,2.07-29.8,3.2-46.25,3.07-4.09.01-8.12-.23-12.2-.39-3.95-.46-8.21-1.81-10.77-5.1-1.27-1.69-1.03-4.13.28-5.71,1.32-1.59,3.24-2.44,4.95-3.52,3.49-2.09,6.93-4.26,10.37-6.5,6.92-4.5,13.41-9.15,19.34-13.77,2.94-2.37,6.02-4.51,8.35-7.29,2.38-2.63,3.59-6.74,1.46-9.77-2.07-2.98-5.89-3.83-9.15-4.08-3.37-.25-6.64.19-9.7.82-6.25,1.14-11.34,2.54-16.86,4.29-21.19,6.99-33.88,13.48-32.43,14.65.76.68,5.45-.34,13.01-2.53,3.75-1.1,8.24-2.41,13.36-3.9,2.54-.71,5.23-1.45,8.06-2.23,1.41-.36,2.86-.72,4.34-1.1.77-.17,1.56-.36,2.37-.54,2.96-.53,6.23-1.5,9.8-.88,1.72.26,3.66,1.44,3.78,3.41.13,1.92-1.26,3.46-2.64,4.71-1.44,1.25-2.98,2.51-4.59,3.79l-2.5,1.94-3.17,2.27-3.89,2.68c-5.04,3.56-11.57,7-14.81,10.54-1.77,1.74-2.97,3.25-4.21,4.66-1.11,1.33-2.38,2.72-2.58,5.25-.27,2.48.98,5.14,2.62,6.8,1.61,1.77,3.6,3.03,5.71,4.02,2.09,1.04,4.32,1.5,7.02,1.83l7.65,1.1c5.95-.08,11.89.04,17.53-.34,4.26-.22,8.45-.59,12.57-1.01,16.47-1.63,31.59-4.74,44.31-8.03,25.46-6.75,41.3-14.17,41.3-14.18ZM1193.07,287.07c-.15.28.41.7,1.51,1.39,1.07.7,2.79,1.71,4.28,3.8,1.42,2.1,2.07,5.59.57,8.73-1.43,3.15-4.14,5.8-7.38,8.55-3.2,2.8-7.15,5.77-11.29,8.82-1.86,1.35-3.78,2.72-5.74,4.14-1.69,1.18-3.42,2.38-5.17,3.59-3.49,2.38-7.06,4.68-10.57,6.88-1.75.97-3.32,3.05-2.43,5.22.92,2.05,3.16,3.19,5.23,3.92,4.31,1.53,8.88.69,13,.81,2.04-.1,4.06-.19,6.05-.29,2.17-.16,4.32-.32,6.43-.47,9.76-.81,18.8-1.94,26.46-3.37,15.35-2.7,25.26-5.69,25.26-5.69-6.88,1.08-20.76,3.46-37.82,4.71-4.26.34-8.72.54-13.31.71-1.78.04-3.58.08-5.4.12-1.15-.01-2.32-.03-3.49-.04-2.32-.14-4.69.05-6.99-.47-1.13-.32-2.25-.79-3.12-1.6-.94-.75-1.17-2.21-.4-3.14,3.72-2.78,7.54-4.82,11.17-7.69,2.31-1.71,4.56-3.39,6.77-5.02,2.46-1.92,4.91-3.77,7-5.62,4.27-3.75,6.95-7.08,8.64-10.12,1.71-3.04,2.51-6.31,1.89-9.5-.63-3.17-2.59-5.51-4.39-6.71-3.75-2.38-6.5-2.15-6.75-1.67Z"/>
  <path class="cls-1" d="M1733.93,319.44c1.37,6.96-16.67,26.32-56.4,47.51-54.21,28.69-110.21,53.97-167.6,75.55-28.71,10.75-57.76,20.59-87.1,29.5-14.64,4.53-29.41,8.66-44.21,12.67-14.82,3.89-29.49,8.03-45.31,10.94-15.38,2.79-31.83,4.39-48.57,1.94-8.35-1.17-17.27-3.44-25.86-8.44-4.26-2.57-8.49-5.86-11.93-10.23-3.5-4.36-5.88-9.39-7.42-14.78-1.32-5.44-1.46-10.94-.83-16.06.76-5.05,2.16-9.71,3.93-13.99,3.63-8.47,8.41-15.65,13.66-22.11,2.61-3.26,5.39-6.28,8.24-9.24l8.13-8.07c5.42-5.37,11.03-10.55,16.67-15.68,21.49-19.41,48.56-41.35,77.5-59.13,16.32-10.2,33.15-18.96,49.24-25.9-3.16-.13-6.39-.32-9.76-.63-7.94-.77-15.68-1.69-23.9-3.25-8.17-1.59-16.69-3.9-25.03-7.89-8.34-3.92-16.29-10.02-22.4-17.14-6.16-7.18-10.67-15.42-13.69-23.94-5.99-17.1-6.53-35.21-2.53-52.4,4.2-17.27,12.6-32.26,22.72-45.37,10.15-13.08,21.93-24.19,34.09-34.24,12.23-9.9,24.77-19.2,37.91-27.74,26.29-16.96,54.27-31.32,83.56-42.32,28.77-10.85,58.32-18.7,89.08-23.24,7.92-1.06,16.27-1.69,25.12-.94,8.78.72,18.35,3.16,26.93,8.48,8.61,5.36,15.35,13.62,19.3,22.29,4.05,8.74,5.83,17.95,5.95,27.06.26,17.66-6.11,34.8-13.72,49.98-7.65,15.04-15.99,29.63-25.05,43.98-18.08,28.52-38.87,54.36-57.97,71.56-11.09,10.07-20.39,14.96-24.41,14.23-4.09-.78-2.87-7.08,5.76-20.27,14.28-21.97,31.98-46.99,48.94-73.91,8.46-13.46,16.81-27.36,24.51-41.37,7.67-13.83,13.7-27.22,14.64-39.51,1.06-11.83-3.05-24.11-10.47-29.6-7.25-5.96-20.05-7.06-33.99-5.24-28.92,4.03-58.46,11.84-86.23,22.46-27.95,10.59-54.64,24.44-79.57,40.88-12.44,8.19-24.54,17.2-35.82,26.68-11.21,9.5-21.47,19.71-29.58,30.94-8.04,11.13-14.07,23.72-16.06,36.09-2.08,12.63-.59,26.12,4.59,37.16,2.58,5.51,6.07,10.36,10.33,14.2,4.22,3.8,9.31,6.75,15.38,8.88,12,4.21,27.39,5.78,42.02,6.91,21.97,1.4,37.88,1.81,48.29,3.38,10.39,1.47,15.29,4.05,14.57,7.65-.14.66-.54,1.37-1.08,2.08.25.13.56.25.75.4,3.24,2.57-.77,7.65-14.5,15.3-22.79,12.84-49.77,27.15-76.72,43.88-26.9,16.74-53.77,35.81-76.4,56.03-5.7,4.93-11.14,10.16-16.63,15.32-5.22,5.26-11.09,10.75-15.38,15.7-4.44,5.14-8.37,10.64-10.92,16.01-2.62,5.38-3.65,10.47-2.94,13.9.59,3.58,2.49,6.4,6.38,8.91,3.95,2.56,9.75,4.38,16.16,5.26,13.04,1.99,27.06.75,41.36-1.97,14.26-2.66,29.21-6.92,44-10.79,14.78-4.04,29.52-8.22,44.15-12.76,29.3-8.99,58.3-18.92,86.95-29.78,57.32-21.67,113.17-47.27,167.15-76.31,40.07-21.75,60.47-26.75,62-19.48ZM1684.8,349.6c-24.56,12.86-74.45,38.88-137.83,64.87-63.33,25.97-140.1,51.98-215.34,68.66-18.84,3.51-38.41,4.79-56.4-.46-8.77-2.71-17.4-7.89-21.45-16.26-4.37-8.2-3.43-18.02-.22-26.04,6.42-16.5,19.03-28.33,29.97-39.21,11.23-10.84,22.06-20.71,32.36-29.27,20.49-17.27,38.42-29.84,50.61-38.35,12.26-8.42,18.75-12.96,17.3-13.12-1.44-.16-11.75,4.86-27.95,15.05-16.19,10.17-38.19,25.68-62.09,46.9-5.96,5.32-12.1,10.92-18.19,16.96-6.02,5.89-12.72,12.38-18.43,20.23-5.59,7.85-11.03,16.75-12.94,28.09-.91,5.6-.68,11.89,1.39,17.74,2,5.8,5.69,11.19,10.39,15.05,9.42,7.78,20.71,10.57,31.28,11.9,10.68,1.26,21.49.98,32.03-.36,21.19-2.68,41.13-8.82,61.16-14.23,80.14-22.44,157.23-53.4,213.05-80.25,27.94-13.4,50.82-25.3,66.6-34.04,7.95-4.25,14.08-7.81,18.28-10.18,4.2-2.39,6.44-3.66,6.42-3.67ZM1267.69,424.69c-.8.17-5.89,4.91-10.78,14.88-2.23,4.95-4.42,11.51-3.32,18.78.85,7.31,6.06,14.69,14.22,18.94,8.1,4.4,18.36,6.22,29.07,6.7,10.75.45,22.12-.73,33.69-2.93,11.57-2.21,23.39-5.31,35.36-8.67,12-3.21,24.09-6.79,36.14-10.42,48.18-14.69,95.17-32.39,129.65-47.22,17.29-7.3,31.47-13.87,41.42-18.4,9.86-4.71,15.49-7.39,15.49-7.39-15.45,6.62-46.76,20.02-85.65,34.54-38.91,14.42-85.48,29.73-130.6,41.76-22.6,6.09-44.48,12.13-64.43,13.22-9.9.58-19.56-.09-27.81-2.05-8.24-1.98-14.99-5.72-18.57-10.6-7.5-10.14-2.76-22.74.72-29.93,3.65-7.51,6.45-11.32,5.4-11.22ZM1414.58,282.3c4.85.17,7.44.26,7.44.26-6.96-.42-15.7-1.17-25.88-2.58-10.12-1.48-22.11-3.35-34.12-9.23-11.99-5.85-22.79-17.14-28.26-31.75-5.61-14.49-6.76-31.69-2.65-48.45,4.37-16.72,13.74-32.59,25.9-46.41,12.11-13.93,26.77-26.1,42.13-37.56,30.83-22.87,65.76-41.92,101.76-55.58,17.99-6.85,36.23-12.39,54.28-16.61,4.53-.98,9.03-1.96,13.5-2.92,4.5-.81,8.96-1.63,13.38-2.44,8.87-1.46,17.75-2.44,26.46-1.9,8.67.51,17.28,2.75,24.26,7.53,7.03,4.71,11.94,11.77,14.78,19.14,5.86,14.97,3.87,30.71-.34,43.43-4.23,12.9-10.16,23.67-15.14,33.05-5.01,9.41-9.52,17.39-13.18,23.86-7.33,12.92-11.22,19.8-9.82,19.33,1.37-.48,8.35-9.54,18.59-25.64,5.07-8.14,10.99-17.76,17.19-29.55,5.99-11.81,12.64-26.36,13.05-44.4.05-8.89-1.56-18.29-5.94-27.25-4.25-8.91-12.14-17.23-21.95-21.61-9.78-4.51-20.42-5.49-30.46-5.1-10.16.37-19.86,2.25-29.56,4.05-38.98,7.42-79.16,21.54-116.3,41.15-18.57,9.81-36.32,21.1-52.9,33.34-16.5,12.28-32.25,25.29-45.4,40.31-13.11,14.96-23.33,32.11-27.81,50.31-4.27,18.22-2.5,36.48,3.8,51.52,3.16,7.51,7.53,14.2,12.75,19.58,5.23,5.35,11.19,9.5,17.17,12.24,12.05,5.5,23.31,6.98,32.29,8.14,9.02,1.07,16.14,1.51,20.99,1.72ZM1626.98,36.32c-.22-.75-5.58-4.8-16.7-6.21-5.5-.73-12.31-.71-20.02.13-7.71.87-16.41,2.4-25.75,4.29-37.41,7.44-85.62,24.42-128.24,50.95-21.3,13.11-41.51,28.11-58.64,43.82-17.08,15.7-30.27,33.08-36.8,49.83-6.92,16.59-6.65,31.81-4.96,41.79.77,5.04,1.98,8.84,2.82,11.4.83,2.57,1.47,3.85,1.47,3.85-2.55-7.18-5.36-18.97-3.65-33.57,1.53-14.44,8.63-31.18,20.86-46.77,12.17-15.67,29.08-30.2,47.6-43.81,18.52-13.54,38.62-26.05,59.23-36.36,41.06-21.08,83.69-33.13,115.11-39,15.67-3.26,28.07-3.87,36.09-2.6,8.01,1.17,11.79,3.24,11.59,2.25Z"/>
</svg>