<?xml version="1.0" encoding="UTF-8"?>
<svg id="Layer_1" data-name="Layer 1" xmlns="http://www.w3.org/2000/svg" viewBox="0 0 1060.4 1245.47">
  <defs>
    <style>
      .cls-1 {
        fill: #fdf7e4;
        stroke-width: 0px;
      }
    </style>
  </defs>
  <path class="cls-1" d="M750.48,417.25l-14.49-10.76,5.85-7.88,6.63,4.92-8.32-56.82-146.69,197.54-23.3,31.37-11.82,15.92-18.91,25.47-100.63,135.51,25.92,19.26,5.62-7.57,14.98,11.12c4.22,3.14,4.69,7.4,1.4,12.78l23.78,17.66,91.44-123.14,18.08-24.36,9.87-13.28.6-.82,5.94-7.99,19.54-26.32,102.5-138.03-7.99-54.58ZM506.45,761.69l-5.85,7.88c-4.68,6.3-9.38,7.7-14.11,4.18l-.79-.58,6.43-8.67c.53.39.99.32,1.38-.2l5.85-7.88c.39-.53.32-.98-.2-1.37-.53-.4-.99-.33-1.38.2l-5.85,7.88c-4.68,6.3-8.59,8.28-11.75,5.94l-1.57-1.17c-4.73-3.51-4.75-8.42-.07-14.72l5.85-7.88c4.68-6.3,9.38-7.7,14.11-4.19l.79.59-6.44,8.66c-.52-.39-.98-.32-1.37.21l-5.85,7.88c-.39.52-.32.98.2,1.37.53.39.98.32,1.37-.2l5.86-7.88c4.68-6.31,8.59-8.29,11.75-5.95l1.57,1.17c4.73,3.51,4.75,8.42.07,14.73ZM534.68,713.79l-7.02,9.46,4.73,3.51-5.85,7.88-22.07-16.38,12.87-17.34c4.69-6.3,9.39-7.7,14.12-4.19l3.15,2.34c4.73,3.51,4.75,8.42.07,14.72ZM560.47,688.94l-7.48-5.56-7.02,9.45,7.48,5.56-5.85,7.88-22.06-16.38,5.85-7.88,7.49,5.56,7.02-9.46-7.49-5.56,5.85-7.88,22.07,16.39-5.86,7.88ZM577.06,656.52c-.41.69-.88,1.39-1.42,2.11l-7.02,9.46,4.73,3.51-5.85,7.88-22.07-16.38,12.88-17.34c1.44-1.93,2.87-3.4,4.31-4.4,3.25-2.3,6.52-2.23,9.8.21l3.15,2.34c4.19,3.11,4.68,7.31,1.49,12.61ZM615.76,614.48l-1.85,2.49-3.94-2.92c-.52-.39-.98-.32-1.37.2l-4.04,5.44-2.98,4.02,4.72,3.51-5.85,7.88-6.77-5.03-3.51-2.6-11.78-8.76,12.87-17.33c4.68-6.31,9.39-7.7,14.12-4.19l3.15,2.34c1.39,1.03,2.37,2.17,2.95,3.44,1.37.19,2.75.8,4.14,1.83l4.73,3.51-4.59,6.17ZM657.21,558.66l-4.32-.76-8.78,11.82,1.99,3.91-5.86,7.88-1.17,1.58-3.77,5.07-13.78,18.57-22.06-16.38,16.61-22.37,2.11-2.85,7.09,5.27-3.02,4.07,1.38,1.44.88-1.19,4.72,3.51-1.49,2,1.38,1.45,4.03-5.43,4.33,3.21-11.11-25.36,6.44-8.67,31.43,3.78-7.03,9.45ZM675.94,533.45l-5.85,7.88c-4.68,6.3-9.39,7.7-14.12,4.18l-7.88-5.85c-4.72-3.51-4.75-8.41-.07-14.72l5.86-7.88c4.68-6.3,9.38-7.7,14.11-4.19l1.58,1.17-6.44,8.67-.79-.59c-.52-.39-.98-.32-1.37.21l-5.85,7.88c-.39.52-.33.98.2,1.37l6.3,4.68c.53.39.98.32,1.38-.2l5.85-7.88c.39-.53.32-.98-.21-1.37l-.78-.59,6.43-8.67,1.58,1.17c4.73,3.51,4.75,8.42.07,14.73ZM690.57,513.74l-14.97-11.11-6.44,8.67-7.09-5.27,18.72-25.22,7.1,5.27-6.44,8.67,14.97,11.11-5.85,7.88ZM716.9,478.28l-5.85,7.88c-4.68,6.31-9.39,7.71-14.12,4.19l-1.57-1.17,6.44-8.66.78.58c.53.39.99.32,1.38-.2l5.85-7.88c.39-.53.32-.99-.2-1.38l-7.1-5.26-6.43,8.67-7.1-5.27,12.88-17.34,14.97,11.12c4.73,3.51,4.75,8.42.07,14.72ZM737.97,449.92l-5.85,7.88c-4.69,6.3-9.39,7.7-14.12,4.19l-.79-.59,6.44-8.67c.52.39.98.32,1.37-.2l5.85-7.88c.39-.53.33-.98-.2-1.37-.52-.39-.98-.33-1.37.2l-5.85,7.88c-4.69,6.3-8.6,8.29-11.75,5.94l-1.58-1.17c-4.73-3.51-4.75-8.41-.07-14.72l5.85-7.88c4.68-6.3,9.39-7.7,14.12-4.19l.78.59-6.43,8.67c-.53-.4-.99-.33-1.37.2l-5.86,7.88c-.39.52-.32.98.21,1.37.52.39.98.32,1.37-.2l5.85-7.88c4.68-6.31,8.6-8.29,11.75-5.95l1.58,1.17c4.73,3.51,4.75,8.42.07,14.73Z"/>
  <path class="cls-1" d="M419.35,849.33l-1.59,2.15c-.52-.39-.98-.32-1.37.21l-5.85,7.88c-.39.52-.32.98.2,1.37.53.39.99.32,1.38-.2l5.85-7.88c.79-1.07,1.56-2.01,2.32-2.83l-.94-.7ZM433.34,859.71h-.01c-.51.99-1.17,2.02-1.97,3.09l-5.85,7.88c-4.68,6.31-9.38,7.7-14.11,4.19l-.79-.58,6.44-8.67c.52.39.98.32,1.37-.2l5.85-7.88c.39-.53.32-.99-.2-1.38-.53-.39-.98-.32-1.37.21l-5.86,7.88c-4.68,6.3-8.59,8.28-11.75,5.94l-1.57-1.17c-4.73-3.51-4.75-8.42-.07-14.72l5.85-7.88c.8-1.07,1.59-2,2.39-2.78l-26.14-19.41-159.2,214.38,71.7,53.25,159.2-214.39-23.91-17.76ZM311.8,1023.81l-7.48-5.56-7.02,9.46,7.48,5.56-5.85,7.88-22.06-16.39,5.85-7.88,7.48,5.56,7.03-9.46-7.49-5.55,5.85-7.88,22.07,16.38-5.86,7.88ZM325.26,1005.69l-14.97-11.12-6.44,8.67-7.09-5.27,18.73-25.22,7.09,5.27-6.44,8.67,14.97,11.12-5.85,7.88ZM358.62,960.77l-11.82-8.78,6.55,15.87-3.51,4.73-17.09-1.69,11.82,8.78-5.85,7.88-22.06-16.38,7.6-10.25,16.3,1.1-5.76-15.28,7.6-10.25,22.07,16.39-5.85,7.88ZM365.64,951.31l-22.07-16.38,5.86-7.88,14.97,11.12,12.87-17.34,7.09,5.27-18.72,25.21ZM410.3,891.17l-5.85,7.88c-4.68,6.31-9.39,7.7-14.12,4.19l-7.88-5.85c-4.73-3.51-4.75-8.42-.07-14.72l5.85-7.88c4.69-6.31,9.39-7.7,14.12-4.19l1.57,1.17-6.43,8.67-.79-.59c-.53-.39-.98-.32-1.37.2l-5.85,7.88c-.39.53-.33.99.2,1.38l6.3,4.68c.53.39.98.32,1.37-.21l5.86-7.88c.39-.52.32-.98-.21-1.37l-.78-.58,6.43-8.67,1.58,1.17c4.73,3.51,4.75,8.42.07,14.72Z"/>
  <path class="cls-1" d="M527.59,708.53l-7.02,9.45-3.15-2.34,7.02-9.45c.39-.53.85-.6,1.37-.21l1.58,1.17c.52.39.59.85.2,1.38Z"/>
  <path class="cls-1" d="M568.55,653.37l-7.02,9.45-3.15-2.34,7.02-9.45c.39-.53.85-.6,1.37-.21l1.58,1.17c.52.39.59.85.2,1.38Z"/>
  <polygon class="cls-1" points="623.63 575.91 613.97 588.9 612.4 587.73 622.25 574.47 623.63 575.91"/>
  <polygon class="cls-1" points="629.12 581.68 620.28 593.58 618.7 592.41 627.74 580.23 629.12 581.68"/>
  <polygon class="cls-1" points="642.87 556.57 639.95 560.51 637.47 555.61 642.87 556.57"/>
  <path class="cls-1" d="M932.77,157.95l2.48,4.9,2.92-3.94-5.4-.96ZM932.77,157.95l2.48,4.9,2.92-3.94-5.4-.96ZM932.77,157.95l2.48,4.9,2.92-3.94-5.4-.96ZM932.77,157.95l2.48,4.9,2.92-3.94-5.4-.96ZM932.77,157.95l2.48,4.9,2.92-3.94-5.4-.96ZM932.77,157.95l2.48,4.9,2.92-3.94-5.4-.96ZM932.77,157.95l2.48,4.9,2.92-3.94-5.4-.96ZM932.77,157.95l2.48,4.9,2.92-3.94-5.4-.96ZM793.05,383.43l-4.5,3.14,5.21,1.72-.71-4.86ZM782.67,312.54l-4.5,3.13,5.22,1.72-.72-4.85ZM968.32,139.7l-.13.18.17-.04-.04-.14ZM932.77,157.95l2.48,4.9,2.92-3.94-5.4-.96ZM932.77,157.95l2.48,4.9,2.92-3.94-5.4-.96ZM932.77,157.95l2.48,4.9,2.92-3.94-5.4-.96ZM932.77,157.95l2.48,4.9,2.92-3.94-5.4-.96ZM932.77,157.95l2.48,4.9,2.92-3.94-5.4-.96ZM932.77,157.95l2.48,4.9,2.92-3.94-5.4-.96ZM932.77,157.95l2.48,4.9,2.92-3.94-5.4-.96Z"/>
  <path class="cls-1" d="M928.01,1013.39l-5.73,5.46-27.86-29.25c-.05,5.47-2.49,8.55-7.31,9.26l-.97.14-1.57-10.68c.65-.1.93-.47.83-1.12l-1.22-8.34-1.88-1.97c-.24.18-.32.48-.26.88l1.42,9.72c1.14,7.77-.24,11.93-4.12,12.5l-1.94.29c-5.83.85-9.31-2.61-10.45-10.38l-1.42-9.71c-1.14-7.77,1.21-12.08,7.03-12.93l.49-.08-1.67-1.76c-5.15.37-8.31-2.94-9.46-9.92h-.01s-38.56-40.48-38.56-40.48l20.21,138.07,9.12,62.28h0s19.04,130.1,19.04,130.1l88.37-12.94-32.08-219.14ZM872.07,1024.86l-1.42-9.71c-1.14-7.77,1.2-12.08,7.03-12.93l1.94-.28,1.57,10.68-.97.14c-.65.1-.93.47-.83,1.11l1.42,9.72c.09.64.46.92,1.11.82l7.77-1.13c.65-.1.92-.47.83-1.12l-1.42-9.71c-.1-.64-.47-.92-1.12-.83l-.97.15-1.56-10.69,1.94-.28c5.83-.86,9.31,2.6,10.45,10.37l1.42,9.71c1.14,7.77-1.21,12.08-7.04,12.94l-9.71,1.42c-5.82.85-9.31-2.61-10.44-10.38ZM880.07,1079.56l18.45-2.7-3.12-21.37,8.74-1.28,4.55,31.08-27.19,3.98-1.43-9.71ZM886.19,1121.32l12.31-10.73-14.87-6.75-1.85-12.62,27.19-3.98,1.42,9.71-14.56,2.13,15.84,6.61.86,5.82-13.29,10.88,14.57-2.14,1.42,9.72-27.2,3.98-1.84-12.63ZM888.32,1135.89l8.74-1.28,1.56,10.68,18.46-2.7,1.42,9.71-18.46,2.7,1.57,10.69-8.74,1.28-4.55-31.08ZM897.7,1199.99l-1.42-9.72,9.23-1.35-1.71-11.65-9.23,1.35-1.42-9.71,27.19-3.98,1.43,9.71-9.23,1.35,1.71,11.65,9.22-1.35,1.42,9.72-27.19,3.98Z"/>
  <path class="cls-1" d="M780.38,4.89l-88.37,12.94,18.58,126.94,41.31-10.68-10.85-4.26-1.56-10.68,24.92-19.52,1.7,11.66-3.6,2.51,2.13,14.57,4.13,1.36h.01l28.78-7.45-17.18-117.39ZM729.25,49.23c-1.13-7.77,1.21-12.08,7.04-12.94l.97-.14,1.56,10.68c-.65.1-.92.47-.83,1.12l1.43,9.71c.09.65.46.92,1.11.83.65-.1.92-.47.83-1.11l-1.42-9.72c-1.14-7.77.23-11.93,4.12-12.5l1.94-.29c5.83-.85,9.31,2.61,10.45,10.38l1.42,9.71c1.14,7.77-1.21,12.08-7.04,12.93l-.97.14-1.56-10.68c.64-.09.92-.46.83-1.11l-1.43-9.71c-.09-.65-.46-.93-1.11-.83-.65.09-.92.46-.83,1.11l1.42,9.71c1.14,7.77-.23,11.94-4.12,12.51l-1.94.28c-5.83.86-9.31-2.6-10.45-10.37l-1.42-9.71ZM755.95,102.85l-.97.15-1.56-10.69c.64-.09.92-.46.82-1.11l-1.42-9.71c-.09-.65-.46-.92-1.11-.83-.65.09-.92.47-.83,1.11l1.42,9.71c1.14,7.77-.23,11.94-4.12,12.51l-1.94.29c-5.83.85-9.31-2.61-10.45-10.38l-1.42-9.71c-1.14-7.77,1.21-12.08,7.04-12.93l.97-.15,1.56,10.69c-.65.09-.92.46-.83,1.11l1.42,9.71c.1.65.47.93,1.12.83.64-.09.92-.46.83-1.11l-1.43-9.71c-1.13-7.77.24-11.94,4.12-12.51l1.95-.29c5.82-.85,9.31,2.61,10.44,10.38l1.43,9.71c1.13,7.77-1.21,12.08-7.04,12.93ZM755.19,124.79l-.71-4.86-4.5,3.14,5.21,1.72Z"/>
  <path class="cls-1" d="M907.6,873.97l-73.73-503.67-6.86-46.88-2.62-17.89-1.28-8.74-.93-6.37-6.63-45.25-4.97-34-28.76,7.43.97,6.62-27.19,3.98-.54-3.67-31.45,8.13,16.54,113.04h0s8.32,56.83,8.32,56.83l2.01,13.72,7.99,54.58,42.48,290.2,38.57,40.48-.24-1.64c-1.14-7.76,1.21-12.08,7.03-12.93l3.89-.57c5.82-.85,9.31,2.61,10.45,10.38l1.7,11.65,5.83-.85,1.42,9.71-13.23,1.94,51.23,53.77ZM764.55,290.39l16.13-11.79-18.83-6.66-1.42-9.72-.28-1.94-4.27-29.13,8.74-1.28,3.13,21.36,1.94-.28-2.56-17.48,5.83-.86,2.56,17.49,1.94-.29-3.13-21.36,8.75-1.28,4.54,31.07-23.79,3.48,25.78,10.12,1.01,6.9.56,3.78-8.05,6.3-.02.02-16.85,13.2-1.71-11.65ZM785.74,435.11l-1-6.82,6.8-.99h0s11.65-1.71,11.65-1.71l-1.71-11.68-1.41-9.68,5.34-.78-25.5-10.01-.29-.11-1.56-10.68,20.79-16.29,1.02-.79-1.75.25-22.05,3.23-1-6.79-2.13-14.57c-1.14-7.77,1.21-12.08,7.04-12.94l3.88-.56c1.71-.25,3.21-.14,4.52.35.52-.4,1.11-.73,1.77-.99.73-.3,1.55-.51,2.45-.64l2.42-.36-3.09-1.21-22.68-8.9-1.57-10.69,24.92-19.51,1.71,11.65-3.61,2.51,2.14,14.57,4.17,1.37.73,5.01.69,4.7.28,1.95.68,4.66.47,3.21.13.87-.87.13-3.98.58c-.65.09-.93.46-.83,1.11l.58,4,1.12,7.65,4.72-.69,1.11-.16.16,1.12.88,6.02.1.63.28,1.94,1.42,9.71-3.6,2.52,2.14,14.56,4.16,1.38,1.43,9.71.13.91h0s.15,1.03.15,1.03l4.26,29.14-27.19,3.98-.42-2.9ZM791.04,471.34c-1.14-7.77,1.21-12.08,7.04-12.94l.97-.14,1.56,10.68c-.65.1-.92.47-.83,1.12l1.42,9.71c.1.65.47.92,1.12.83.64-.1.92-.47.83-1.12l-1.43-9.71c-1.13-7.77.24-11.94,4.12-12.5l1.95-.29c5.82-.85,9.31,2.61,10.44,10.38l1.43,9.71c1.13,7.77-1.21,12.08-7.04,12.93l-.97.14-1.56-10.68c.64-.09.92-.46.83-1.11l-1.43-9.71c-.09-.65-.46-.93-1.11-.83-.65.09-.92.46-.83,1.11l1.42,9.71c1.14,7.77-.23,11.94-4.12,12.51l-1.94.28c-5.83.86-9.31-2.6-10.45-10.37l-1.42-9.71ZM794.45,494.64l18.46-2.7c5.82-.85,9.3,2.61,10.44,10.38l1.42,9.71c1.14,7.77-1.2,12.08-7.03,12.93l-1.94.29-1.57-10.68.97-.15c.65-.09.93-.46.83-1.11l-1.42-9.71c-.09-.65-.46-.93-1.11-.83l-8.74,1.28,1.56,10.68-8.74,1.28-3.13-21.37ZM799.57,529.61l8.74-1.28,1.57,10.68,18.45-2.7,1.42,9.71-18.45,2.7,1.56,10.68-8.74,1.28-4.55-31.07ZM807.53,583.99l-1.42-9.71c-1.14-7.77,1.21-12.08,7.04-12.93l1.94-.29,1.56,10.69-.97.14c-.65.09-.92.46-.83,1.11l1.42,9.71c.1.65.47.93,1.12.83l7.77-1.14c.64-.09.92-.46.82-1.11l-1.42-9.71c-.09-.65-.46-.92-1.11-.83l-.97.14-1.56-10.68,1.94-.28c5.82-.86,9.31,2.6,10.44,10.37l1.42,9.71c1.14,7.77-1.2,12.08-7.03,12.94l-9.71,1.42c-5.83.85-9.31-2.61-10.45-10.38ZM814.78,633.52l8.74-1.28,3.13,21.37,1.94-.29-2.56-17.48,5.83-.85,2.56,17.48,1.94-.28-3.13-21.37,5.35-.78-25.79-10.11-1.56-10.69,24.92-19.52,1.7,11.66-3.6,2.51,2.13,14.57,4.17,1.37,1.43,9.71.28,1.94,4.26,29.14-27.19,3.98-4.55-31.08ZM821.32,678.2c-1.14-7.77,1.21-12.08,7.04-12.94l3.88-.57c1.71-.25,3.21-.13,4.52.35,1.1-.83,2.51-1.38,4.22-1.63l5.83-.85,1.56,10.68-4.85.72c-.65.09-.93.46-.83,1.11l1.7,11.65,5.83-.85,1.42,9.71-27.19,3.98-3.13-21.36ZM829.33,732.89c-1.14-7.77,1.21-12.08,7.03-12.93l3.89-.57c5.82-.85,9.31,2.61,10.44,10.37l1.71,11.66,5.83-.85,1.42,9.71-27.19,3.98-3.13-21.37ZM837.29,787.28l-1.42-9.71,9.22-1.35-1.7-11.66-9.23,1.35-1.42-9.71,27.19-3.98,1.42,9.71-9.22,1.35,1.71,11.66,9.22-1.35,1.42,9.71-27.19,3.98Z"/>
  <polygon class="cls-1" points="793.76 388.29 788.55 386.57 793.05 383.43 793.76 388.29"/>
  <polygon class="cls-1" points="783.39 317.39 778.17 315.67 782.67 312.54 783.39 317.39"/>
  <polygon class="cls-1" points="826.93 614.88 821.72 613.16 826.22 610.02 826.93 614.88"/>
  <path class="cls-1" d="M835.65,688l-3.88.57-1.71-11.65c-.09-.65.18-1.02.83-1.12l1.94-.28c.65-.1,1.02.18,1.12.83l1.7,11.65Z"/>
  <path class="cls-1" d="M843.66,742.7l-3.89.57-1.7-11.66c-.1-.64.18-1.02.83-1.11l1.94-.28c.65-.1,1.02.18,1.11.82l1.71,11.66Z"/>
  <path class="cls-1" d="M907.6,873.97l-51.23-53.77-16.85-17.69-38.57-40.48-144.98-152.17-19.54,26.32.3.31c5.42,5.68,6,10.56,1.73,14.62l-.71.68-7.26-7.62-.6.82c4.59,5.15,5.55,9,2.89,11.54l-1.42,1.35c-3.42,3.25-7.2,3.38-11.34.39l-18.08,24.36,221.4,232.38h.01s38.56,40.48,38.56,40.48h.01s9.46,9.93,9.46,9.93l1.67,1.76.48-.07.1.68,2.54,2.67,6.13,6.43,1.88,1.97,10.24,10.74,27.86,29.25,5.73-5.46,58.93-56.15-79.34-83.27ZM633.76,673.21l13.5-12.86-7.44-7.82,6.39-6.09,21.67,22.74-6.4,6.09-7.45-7.81-13.5,12.86-6.77-7.11ZM735.28,752.73l-2.84,2.71c-4.27,4.06-9.11,3.25-14.52-2.44l-8.13-8.52-4.26,4.06-5.42-5.69-1.35-1.42-6.77-7.1,1.49-4.13-10.16-10.66-4.19,1.28-6.78-7.1-1.35-1.42-6.09-6.4,3.55-3.38c.47-.45.48-.92.03-1.39l-8.12-8.53-4.27,4.06-6.77-7.1,19.9-18.96,14.9,15.63c5.41,5.69,5.99,10.56,1.73,14.63l-2.85,2.7c-1.25,1.19-2.54,1.97-3.89,2.32-.42,1.33-1.25,2.59-2.5,3.78l-1.78,1.69,26.89-6.64,7.45,7.82-7.94,26.54,17.42-16.59,14.89,15.63c5.42,5.68,5.99,10.56,1.73,14.62ZM751.79,797.09l-6.78-7.11c-5.41-5.68-5.99-10.56-1.72-14.62l7.1-6.77c4.27-4.06,9.11-3.25,14.52,2.44l14.9,15.63-6.4,6.09-14.89-15.63c-.45-.47-.92-.49-1.39-.04l-5.69,5.42c-.47.45-.48.91-.03,1.39l6.77,7.1c.45.48.91.49,1.39.04l.71-.68-6.77-7.11,4.26-4.06,14.22,14.93-5.68,5.41c-4.27,4.07-9.11,3.25-14.52-2.43ZM761.26,807.04l19.9-18.96,6.77,7.11-19.9,18.95-6.77-7.1ZM809.54,820.7l-4.98,4.74-7.45-7.82-13.5,12.87-6.77-7.11,13.5-12.86-7.45-7.82,6.4-6.09,19.76,20.74h0s1.9,2,1.9,2l-1.41,1.34h0ZM821.06,869.8l-5.12-5.38-1.65-1.73c-5.42-5.68-5.99-10.55-1.73-14.62l.87-.82h0s6.24-5.95,6.24-5.95c4.26-4.06,9.1-3.25,14.52,2.44l13.43,14.1,1.46,1.53-1.08,1.03-5.31,5.06-14.9-15.63c-.45-.47-.91-.49-1.38-.03l-5.69,5.41c-.47.45-.49.92-.03,1.39l6.77,7.11c.45.47.91.48,1.38.03l.71-.68-6.77-7.1,4.27-4.06,14.22,14.92-5.69,5.42c-4.26,4.06-9.1,3.24-14.52-2.44ZM830.54,879.75l17.81-16.96,2.09-2,6.77,7.11-5.53,5.27-14.37,13.68-6.77-7.1ZM852.88,903.2l-6.77-7.11,6.24-5.94,7.26-6.92-4.72-4.96-2.72-2.86.95-.91,5.44-5.18,4.83,5.07,2.2,2.31,14.64,15.36-6.4,6.09-1.73-1.81-5.72-6.01-4.45,4.25-5.55,5.29-3.5,3.33ZM883.35,935.18l-4.22-4.43-2.55-2.68,6.75-6.43-8.12-8.53-6.76,6.43-6.77-7.1,9.47-9.03,9.58-9.12.85-.81,6.77,7.11-6.75,6.43,8.13,8.53,6.75-6.44,6.77,7.11-18.35,17.48-1.55,1.48ZM899.6,952.23l-6.77-7.1c-5.42-5.69-5.99-10.56-1.73-14.63l13.5-12.86,7.45,7.82-12.79,12.18c-.48.46-.49.92-.04,1.39l6.77,7.11c.46.47.92.48,1.39.03l9.47-9.03,3.32-3.16,7.45,7.82-8.85,8.44-4.65,4.43c-4.27,4.06-9.11,3.25-14.52-2.44ZM944.18,974.83c-.84.8-1.78,1.23-2.83,1.31-.12,1.04-.6,1.96-1.44,2.76l-1.42,1.35c-4.26,4.06-9.1,3.25-14.52-2.43l-1.38-1.45-13.51-14.19,10.03-9.56h0s9.86-9.4,9.86-9.4l14.9,15.64c5.42,5.68,5.99,10.56,1.73,14.62l-1.42,1.35Z"/>
  <path class="cls-1" d="M853.61,810.68l-3.88.57-1.71-11.66c-.09-.64.18-1.01.83-1.11l1.94-.28c.65-.1,1.02.18,1.12.83l1.7,11.65Z"/>
  <polygon class="cls-1" points="873.53 967.11 873.63 967.79 873.05 967.18 873.53 967.11"/>
  <path class="cls-1" d="M876.8,989.45c-.64.1-1.02-.18-1.11-.83l-1.42-9.71c-.1-.65.18-1.02.83-1.11l-1.47-10.01,2.54,2.67c-.48,2.02-.46,4.75.04,8.17l1.42,9.71c.1.65-.18,1.02-.83,1.11Z"/>
  <g>
    <path class="cls-1" d="M873.53,967.11l-.48.07.58.61-.1-.68Z"/>
    <path class="cls-1" d="M787.27,357.49l-.31.05-3.57.52-.52-3.56-1.19-8.09c-.09-.65.18-1.02.83-1.12l1.94-.28c.65-.09,1.02.18,1.12.83l1.7,11.65Z"/>
  </g>
  <path class="cls-1" d="M417.83,489.39c-.05,1.99-.69,4.3-1.91,6.91l-4.17,8.89c-3.33,7.11-7.66,9.42-12.99,6.92l-.89-.42,4.58-9.78c.59.28,1.03.12,1.31-.47l4.16-8.89c.28-.59.12-1.02-.47-1.3-.59-.28-1.03-.12-1.31.47l-4.16,8.89c-3.33,7.11-6.78,9.83-10.33,8.17l-1.78-.84c-5.33-2.5-6.33-7.3-3-14.41l4.16-8.89c3.33-7.11,7.67-9.42,13-6.92l.89.42-4.58,9.78c-.59-.28-1.03-.12-1.31.47l-4.16,8.89c-.28.59-.12,1.02.47,1.3.59.28,1.03.12,1.3-.47l4.17-8.89c2.8-5.99,5.69-8.86,8.65-8.62l-4.54-4.77-.06.12-8-3.75,1.52-3.23-23.91-25.09-90.69,193.53-13.99,29.86-3.82,8.16-4.25,9.07-3.82,8.16-12.79,27.28-99.19,211.69,80.87,37.89,91.49-195.24,12.78-27.29,11.38-24.28,14.51-30.97,83.63-178.47-22.75-23.88ZM221.71,910.76l-4.16,8.89-24.89-11.66,9.17-19.56c3.33-7.11,7.66-9.41,12.99-6.91l3.56,1.66c5.33,2.5,6.33,7.3,3,14.41l-5,10.67,5.33,2.5ZM241.7,868.1l-8.44-3.96-5,10.67,8.45,3.95-4.17,8.89-24.88-11.66,4.16-8.89,8.44,3.96,5-10.67-8.44-3.95,4.16-8.89,24.89,11.66-4.17,8.89ZM255.86,837.88l-4.16,8.89c-3.33,7.11-7.67,9.41-13,6.91l-8.89-4.16c-5.33-2.5-6.33-7.3-3-14.41l4.17-8.89c3.33-7.11,7.66-9.42,12.99-6.92l8.89,4.17c5.33,2.49,6.33,7.3,3,14.41ZM266.27,815.66l-16.88-7.91-4.58,9.77-8-3.74,13.32-28.45,8,3.75-4.58,9.78,16.89,7.91-4.17,8.89ZM285.02,775.66l-4.17,8.89c-3.33,7.11-7.66,9.42-13,6.92l-8.88-4.17c-5.34-2.49-6.34-7.3-3-14.41l4.16-8.89c3.33-7.11,7.66-9.41,13-6.92l8.88,4.17c5.34,2.5,6.34,7.3,3.01,14.41ZM300.01,743.67l-4.17,8.89c-.64,1.36-1.31,2.54-2.02,3.55-3,4.26-6.66,5.38-10.97,3.36l-.89-.41,4.08-8.72-.84-.63c-3.05,5.81-6.21,7.96-9.46,6.43l-1.78-.83c-5.33-2.5-6.33-7.3-3-14.41l.61-1.31,3.55-7.58c3.33-7.11,7.67-9.42,13-6.92l.89.42-4.58,9.77c-.6-.27-1.03-.12-1.31.47l-4.16,8.89c-.06.13-.1.25-.11.36l1.38,1.02c.2-.08.37-.26.5-.54l4.17-8.89c3.33-7.11,6.77-9.83,10.33-8.17l1.78.83c5.33,2.5,6.33,7.31,3,14.42ZM315,711.67l-4.69-2.2-3.75-1.75-3.61,7.69-1.39,2.97,8.44,3.96-4.16,8.89-24.89-11.67,4.17-8.88,8.44,3.95.99-2.11,3.82-8.15-1.8-1.33-6.45-3.03.61-1.31,1.7-3.63,1.85-3.95,16.82,7.88,8.07,3.78-4.17,8.89ZM329.16,681.45l-4.16,8.89c-3.33,7.11-7.67,9.42-13,6.92l-4.9-2.3-3.99-1.87c-2.25-1.05-3.73-2.51-4.43-4.39-.97-2.57-.49-5.91,1.43-10.02l4.17-8.89c3.33-7.11,7.66-9.42,12.99-6.92l2.16,1.02,6.73,3.15c2.61,1.23,4.18,3.01,4.71,5.34.56,2.42-.01,5.45-1.71,9.07ZM339.16,660.12l-4.17,8.89-23.46-10.99-1.42-.67.14-.29,9.02-19.26c3.33-7.11,7.66-9.42,12.99-6.92l3.56,1.66c5.33,2.5,6.33,7.31,3,14.42l-5,10.66,5.34,2.5ZM358.45,618.95l-24.89-11.66,4.17-8.89,24.88,11.67-4.16,8.88ZM363.44,608.29l-24.88-11.66,4.16-8.89,16.89,7.91,9.16-19.55,8,3.75-13.33,28.44ZM377.6,578.07l-24.88-11.66,4.16-8.89,16.89,7.91,9.16-19.55,8,3.75-13.33,28.44ZM400.93,528.3l-4.17,8.89c-3.33,7.11-7.66,9.41-13,6.91l-16.88-7.91,4.58-9.78,16,7.5c.59.28,1.02.12,1.3-.47l4.17-8.89c.27-.59.12-1.03-.48-1.31l-15.99-7.49,4.58-9.78,16.89,7.91c5.33,2.5,6.33,7.31,3,14.42Z"/>
  <path class="cls-1" d="M280.23,746.02c-.22.1-.49.08-.8-.07-.46-.22-.66-.53-.58-.95l1.38,1.02Z"/>
  <path class="cls-1" d="M213.38,893.85l-5,10.66-3.55-1.66,4.99-10.67c.28-.59.72-.75,1.31-.47l1.78.83c.59.28.75.71.47,1.31Z"/>
  <path class="cls-1" d="M247.86,834.13l-4.16,8.89c-.28.59-.71.75-1.31.47l-7.11-3.33c-.59-.28-.75-.71-.47-1.31l4.17-8.88c.27-.6.71-.75,1.3-.48l7.11,3.33c.59.28.75.72.47,1.31Z"/>
  <path class="cls-1" d="M277.02,771.92l-4.17,8.88c-.28.6-.71.75-1.3.48l-7.11-3.34c-.6-.27-.75-.71-.48-1.3l4.17-8.89c.28-.59.71-.75,1.3-.47l7.11,3.33c.6.28.75.71.48,1.31Z"/>
  <path class="cls-1" d="M292.01,739.92l-4.17,8.89c-.27.59-.71.75-1.3.47l-.5,1.06-.84-.63c.3-.54.58-1.12.87-1.73l4.16-8.89c.28-.6.71-.75,1.31-.48.59.28.75.72.47,1.31Z"/>
  <polygon class="cls-1" points="298.56 703.97 298.37 704.37 296.57 703.04 298.56 703.97"/>
  <path class="cls-1" d="M321.16,677.7l-4.16,8.89c-.28.6-.72.75-1.31.47l-7.11-3.33c-.59-.28-.75-.71-.47-1.3l4.16-8.89c.28-.59.72-.75,1.31-.47l7.11,3.33c.59.28.75.71.47,1.3Z"/>
  <path class="cls-1" d="M330.82,643.21l-5,10.67-3.55-1.67,5-10.67c.27-.59.71-.75,1.3-.47l1.78.83c.59.28.75.72.47,1.31Z"/>
  <path class="cls-1" d="M481.63,335.24l-4.16,8.89c-.28.59-.71.75-1.31.47l-7.11-3.33c-.59-.28-.75-.72-.47-1.31l4.17-8.89c.27-.59.71-.75,1.3-.47l7.11,3.33c.59.28.75.72.47,1.31Z"/>
  <path class="cls-1" d="M491.29,300.74l-4.99,10.67-3.56-1.67,5-10.66c.28-.6.71-.75,1.3-.47l1.78.83c.59.28.75.71.47,1.3Z"/>
  <path class="cls-1" d="M513.05,257.03l.56.71.35-.74c-.31.02-.61.03-.91.03Z"/>
  <path class="cls-1" d="M558.37,152.98l-5,10.66-1.78-.83,5-10.67c.28-.59.71-.75,1.3-.47.6.28.75.71.48,1.31Z"/>
  <path class="cls-1" d="M565.48,156.31l-5,10.66-1.78-.83,5-10.66c.28-.6.71-.75,1.3-.48.6.28.76.72.48,1.31Z"/>
  <polygon class="cls-1" points="611.39 74.67 595.46 80.76 589.93 64.62 611.39 74.67"/>
  <path class="cls-1" d="M614.27,52.18l-5,10.66-8.89-4.16,5-10.67c.28-.59.71-.75,1.31-.47l7.11,3.33c.59.28.75.72.47,1.31Z"/>
  <path class="cls-1" d="M79.37,538.08l-1.17,1.58c-.39.52-.84.59-1.37.2l-9.46-7.02,2.35-3.15,9.45,7.02c.53.39.59.84.2,1.37Z"/>
  <path class="cls-1" d="M134.33,577.67l-7.88-5.85c-.52-.39-.98-.33-1.37.2l-4.68,6.3c-.39.53-.32.99.2,1.38l7.88,5.85c.53.39.98.32,1.37-.2l4.68-6.31c.4-.52.33-.98-.2-1.37ZM134.33,577.67l-7.88-5.85c-.52-.39-.98-.33-1.37.2l-4.68,6.3c-.39.53-.32.99.2,1.38l7.88,5.85c.53.39.98.32,1.37-.2l4.68-6.31c.4-.52.33-.98-.2-1.37ZM134.33,577.67l-7.88-5.85c-.52-.39-.98-.33-1.37.2l-4.68,6.3c-.39.53-.32.99.2,1.38l7.88,5.85c.53.39.98.32,1.37-.2l4.68-6.31c.4-.52.33-.98-.2-1.37ZM189.49,618.63l-7.88-5.85c-.52-.39-.98-.32-1.37.2l-4.68,6.3c-.39.53-.32.99.2,1.38l7.88,5.85c.53.39.99.32,1.37-.2l4.69-6.31c.39-.52.32-.98-.21-1.37ZM189.49,618.63l-7.88-5.85c-.52-.39-.98-.32-1.37.2l-4.68,6.3c-.39.53-.32.99.2,1.38l7.88,5.85c.53.39.99.32,1.37-.2l4.69-6.31c.39-.52.32-.98-.21-1.37ZM134.33,577.67l-7.88-5.85c-.52-.39-.98-.33-1.37.2l-4.68,6.3c-.39.53-.32.99.2,1.38l7.88,5.85c.53.39.98.32,1.37-.2l4.68-6.31c.4-.52.33-.98-.2-1.37ZM134.33,577.67l-7.88-5.85c-.52-.39-.98-.33-1.37.2l-4.68,6.3c-.39.53-.32.99.2,1.38l7.88,5.85c.53.39.98.32,1.37-.2l4.68-6.31c.4-.52.33-.98-.2-1.37ZM189.49,618.63l-7.88-5.85c-.52-.39-.98-.32-1.37.2l-4.68,6.3c-.39.53-.32.99.2,1.38l7.88,5.85c.53.39.99.32,1.37-.2l4.69-6.31c.39-.52.32-.98-.21-1.37ZM189.49,618.63l-7.88-5.85c-.52-.39-.98-.32-1.37.2l-4.68,6.3c-.39.53-.32.99.2,1.38l7.88,5.85c.53.39.99.32,1.37-.2l4.69-6.31c.39-.52.32-.98-.21-1.37ZM134.33,577.67l-7.88-5.85c-.52-.39-.98-.33-1.37.2l-4.68,6.3c-.39.53-.32.99.2,1.38l7.88,5.85c.53.39.98.32,1.37-.2l4.68-6.31c.4-.52.33-.98-.2-1.37ZM53.25,466.22L0,537.93l245.11,182.01,12.79-27.28-3.88-2.88c-6.3-4.68-7.7-9.39-4.18-14.12l5.85-7.88c3.39-4.56,8.09-4.74,14.1-.51l13.99-29.86L53.25,466.22ZM62.11,539.93l-3.51,4.73-7.88-5.85,16.38-22.07,17.34,12.88c6.3,4.68,7.7,9.38,4.19,14.11l-2.34,3.15c-3.51,4.73-8.42,4.75-14.73.07l-9.45-7.02ZM96.42,572.74l5.56-7.48-9.46-7.02-5.55,7.48-7.88-5.85,16.38-22.06,7.88,5.85-5.56,7.49,9.46,7.02,5.56-7.49,7.88,5.85-16.39,22.07-7.88-5.86ZM123.21,592.64l-7.88-5.85c-6.3-4.68-7.7-9.39-4.19-14.12l5.86-7.88c3.51-4.72,8.41-4.75,14.72-.07l7.88,5.86c6.3,4.68,7.7,9.38,4.19,14.11l-5.85,7.88c-3.51,4.73-8.42,4.75-14.73.07ZM150.8,613.12l-7.88-5.85,11.11-14.97-8.67-6.44,5.27-7.09,25.22,18.72-5.27,7.1-8.67-6.44-11.11,14.97ZM178.38,633.6l-7.88-5.85c-6.31-4.68-7.71-9.39-4.19-14.11l5.85-7.88c3.51-4.73,8.42-4.76,14.72-.07l7.88,5.85c6.3,4.68,7.7,9.38,4.19,14.11l-5.85,7.88c-3.51,4.73-8.42,4.75-14.72.07ZM206.74,654.67l-7.88-5.85c-6.3-4.69-7.7-9.39-4.19-14.12l.59-.79,8.67,6.44c-.39.53-.33.98.2,1.37l7.88,5.86c.53.39.98.32,1.37-.21.39-.52.33-.98-.2-1.37l-7.88-5.85c-6.3-4.68-8.29-8.6-5.95-11.75l1.18-1.58c3.51-4.73,8.41-4.75,14.72-.07l7.88,5.85c6.3,4.68,7.7,9.39,4.19,14.12l-.59.79-8.67-6.44c.39-.53.33-.98-.2-1.37l-7.88-5.86c-.52-.39-.98-.32-1.37.21-.39.52-.32.98.2,1.37l7.88,5.85c6.31,4.68,8.29,8.6,5.95,11.75l-1.17,1.58c-3.51,4.73-8.42,4.75-14.73.07ZM242.99,681.58l-7.88-5.85,5.56-7.48-9.46-7.02-5.55,7.48-7.88-5.85,16.38-22.06,7.88,5.85-5.56,7.48,9.46,7.02,5.56-7.48,7.88,5.85-16.39,22.06ZM263.77,675.01l-4.68,6.3c-.39.53-.32.99.2,1.38l2.43,1.81,4.25-9.07-.83-.62c-.52-.39-.98-.33-1.37.2ZM189.49,618.63l-7.88-5.85c-.52-.39-.98-.32-1.37.2l-4.68,6.3c-.39.53-.32.99.2,1.38l7.88,5.85c.53.39.99.32,1.37-.2l4.69-6.31c.39-.52.32-.98-.21-1.37ZM134.33,577.67l-7.88-5.85c-.52-.39-.98-.33-1.37.2l-4.68,6.3c-.39.53-.32.99.2,1.38l7.88,5.85c.53.39.98.32,1.37-.2l4.68-6.31c.4-.52.33-.98-.2-1.37ZM134.33,577.67l-7.88-5.85c-.52-.39-.98-.33-1.37.2l-4.68,6.3c-.39.53-.32.99.2,1.38l7.88,5.85c.53.39.98.32,1.37-.2l4.68-6.31c.4-.52.33-.98-.2-1.37ZM189.49,618.63l-7.88-5.85c-.52-.39-.98-.32-1.37.2l-4.68,6.3c-.39.53-.32.99.2,1.38l7.88,5.85c.53.39.99.32,1.37-.2l4.69-6.31c.39-.52.32-.98-.21-1.37ZM189.49,618.63l-7.88-5.85c-.52-.39-.98-.32-1.37.2l-4.68,6.3c-.39.53-.32.99.2,1.38l7.88,5.85c.53.39.99.32,1.37-.2l4.69-6.31c.39-.52.32-.98-.21-1.37ZM134.33,577.67l-7.88-5.85c-.52-.39-.98-.33-1.37.2l-4.68,6.3c-.39.53-.32.99.2,1.38l7.88,5.85c.53.39.98.32,1.37-.2l4.68-6.31c.4-.52.33-.98-.2-1.37ZM134.33,577.67l-7.88-5.85c-.52-.39-.98-.33-1.37.2l-4.68,6.3c-.39.53-.32.99.2,1.38l7.88,5.85c.53.39.98.32,1.37-.2l4.68-6.31c.4-.52.33-.98-.2-1.37ZM134.33,577.67l-7.88-5.85c-.52-.39-.98-.33-1.37.2l-4.68,6.3c-.39.53-.32.99.2,1.38l7.88,5.85c.53.39.98.32,1.37-.2l4.68-6.31c.4-.52.33-.98-.2-1.37Z"/>
  <path class="cls-1" d="M292.01,739.92l-4.17,8.89c-.27.59-.71.75-1.3.47l-.5,1.06-.84-.63c.3-.54.58-1.12.87-1.73l4.16-8.89c.28-.6.71-.75,1.31-.48.59.28.75.72.47,1.31Z"/>
  <polygon class="cls-1" points="298.56 703.97 298.37 704.37 296.57 703.04 298.56 703.97"/>
  <path class="cls-1" d="M321.16,677.7l-4.16,8.89c-.28.6-.72.75-1.31.47l-7.11-3.33c-.59-.28-.75-.71-.47-1.3l4.16-8.89c.28-.59.72-.75,1.31-.47l7.11,3.33c.59.28.75.71.47,1.3Z"/>
  <polygon class="cls-1" points="516.58 862.74 515.62 868.14 511.68 865.22 516.58 862.74"/>
  <path class="cls-1" d="M640.38,960.79l3.94,2.92.96-5.4-4.9,2.48ZM678.57,981.81l-9.46-7.03-5.85,7.88,9.45,7.03c.53.39.99.32,1.38-.21l4.68-6.3c.39-.53.32-.98-.2-1.37ZM827.63,1092.49l-9.46-7.02-5.85,7.88,9.45,7.03c.53.39.99.32,1.38-.21l4.68-6.3c.39-.53.32-.98-.2-1.38ZM827.63,1092.49l-9.46-7.02-5.85,7.88,9.45,7.03c.53.39.99.32,1.38-.21l4.68-6.3c.39-.53.32-.98-.2-1.38ZM678.57,981.81l-9.46-7.03-5.85,7.88,9.45,7.03c.53.39.99.32,1.38-.21l4.68-6.3c.39-.53.32-.98-.2-1.37ZM640.38,960.79l3.94,2.92.96-5.4-4.9,2.48ZM640.38,960.79l3.94,2.92.96-5.4-4.9,2.48ZM678.57,981.81l-9.46-7.03-5.85,7.88,9.45,7.03c.53.39.99.32,1.38-.21l4.68-6.3c.39-.53.32-.98-.2-1.37ZM797.51,1076.25l2.79,16.82,14.13-19.02-16.92,2.2ZM827.63,1092.49l-9.46-7.02-5.85,7.88,9.45,7.03c.53.39.99.32,1.38-.21l4.68-6.3c.39-.53.32-.98-.2-1.38ZM827.63,1092.49l-9.46-7.02-5.85,7.88,9.45,7.03c.53.39.99.32,1.38-.21l4.68-6.3c.39-.53.32-.98-.2-1.38ZM797.51,1076.25l2.79,16.82,14.13-19.02-16.92,2.2ZM678.57,981.81l-9.46-7.03-5.85,7.88,9.45,7.03c.53.39.99.32,1.38-.21l4.68-6.3c.39-.53.32-.98-.2-1.37ZM640.38,960.79l3.94,2.92.96-5.4-4.9,2.48ZM640.38,960.79l3.94,2.92.96-5.4-4.9,2.48ZM678.57,981.81l-9.46-7.03-5.85,7.88,9.45,7.03c.53.39.99.32,1.38-.21l4.68-6.3c.39-.53.32-.98-.2-1.37ZM797.51,1076.25l2.79,16.82,14.13-19.02-16.92,2.2ZM827.63,1092.49l-9.46-7.02-5.85,7.88,9.45,7.03c.53.39.99.32,1.38-.21l4.68-6.3c.39-.53.32-.98-.2-1.38ZM827.63,1092.49l-9.46-7.02-5.85,7.88,9.45,7.03c.53.39.99.32,1.38-.21l4.68-6.3c.39-.53.32-.98-.2-1.38ZM797.51,1076.25l2.79,16.82,14.13-19.02-16.92,2.2ZM678.57,981.81l-9.46-7.03-5.85,7.88,9.45,7.03c.53.39.99.32,1.38-.21l4.68-6.3c.39-.53.32-.98-.2-1.37ZM640.38,960.79l3.94,2.92.96-5.4-4.9,2.48ZM640.38,960.79l3.94,2.92.96-5.4-4.9,2.48ZM678.57,981.81l-9.46-7.03-5.85,7.88,9.45,7.03c.53.39.99.32,1.38-.21l4.68-6.3c.39-.53.32-.98-.2-1.37ZM797.51,1076.25l2.79,16.82,14.13-19.02-16.92,2.2ZM827.63,1092.49l-9.46-7.02-5.85,7.88,9.45,7.03c.53.39.99.32,1.38-.21l4.68-6.3c.39-.53.32-.98-.2-1.38ZM827.63,1092.49l-9.46-7.02-5.85,7.88,9.45,7.03c.53.39.99.32,1.38-.21l4.68-6.3c.39-.53.32-.98-.2-1.38ZM797.51,1076.25l2.79,16.82,14.13-19.02-16.92,2.2ZM678.57,981.81l-9.46-7.03-5.85,7.88,9.45,7.03c.53.39.99.32,1.38-.21l4.68-6.3c.39-.53.32-.98-.2-1.37ZM640.38,960.79l3.94,2.92.96-5.4-4.9,2.48ZM640.38,960.79l3.94,2.92.96-5.4-4.9,2.48ZM678.57,981.81l-9.46-7.03-5.85,7.88,9.45,7.03c.53.39.99.32,1.38-.21l4.68-6.3c.39-.53.32-.98-.2-1.37ZM797.51,1076.25l2.79,16.82,14.13-19.02-16.92,2.2ZM827.63,1092.49l-9.46-7.02-5.85,7.88,9.45,7.03c.53.39.99.32,1.38-.21l4.68-6.3c.39-.53.32-.98-.2-1.38ZM827.63,1092.49l-9.46-7.02-5.85,7.88,9.45,7.03c.53.39.99.32,1.38-.21l4.68-6.3c.39-.53.32-.98-.2-1.38ZM797.51,1076.25l2.79,16.82,14.13-19.02-16.92,2.2ZM678.57,981.81l-9.46-7.03-5.85,7.88,9.45,7.03c.53.39.99.32,1.38-.21l4.68-6.3c.39-.53.32-.98-.2-1.37ZM640.38,960.79l3.94,2.92.96-5.4-4.9,2.48ZM827.63,1092.49l-9.46-7.02-5.85,7.88,9.45,7.03c.53.39.99.32,1.38-.21l4.68-6.3c.39-.53.32-.98-.2-1.38ZM797.51,1076.25l2.79,16.82,14.13-19.02-16.92,2.2ZM730.62,1030.24l-9.45-7.02-1.18,1.58,9.46,7.02c.53.39.98.32,1.37-.21.39-.52.33-.98-.2-1.37ZM735.3,1023.94l-9.45-7.03-1.17,1.58,9.45,7.02c.53.39.98.33,1.38-.2.39-.53.32-.98-.21-1.37ZM706.93,1002.87l-7.88-5.85c-.52-.39-.98-.32-1.37.2l-4.68,6.31c-.39.52-.32.98.2,1.37l7.88,5.85c.53.39.99.32,1.38-.2l4.68-6.31c.39-.52.32-.98-.21-1.37ZM678.57,981.81l-9.46-7.03-5.85,7.88,9.45,7.03c.53.39.99.32,1.38-.21l4.68-6.3c.39-.53.32-.98-.2-1.37ZM640.38,960.79l3.94,2.92.96-5.4-4.9,2.48ZM605.03,927.2l-9.46-7.02-2.34,3.15,9.46,7.02c.52.39.98.32,1.37-.2l1.17-1.58c.39-.52.32-.98-.2-1.37ZM492.03,843.2l-9.46-7.02-2.34,3.15,9.46,7.02c.52.39.98.32,1.37-.2l1.17-1.58c.39-.52.32-.98-.2-1.37ZM576.66,906.13l-7.88-5.85c-.53-.39-.98-.32-1.37.2l-4.69,6.31c-.38.52-.32.98.21,1.37l7.88,5.85c.52.39.98.32,1.37-.2l4.68-6.31c.39-.52.32-.98-.2-1.37ZM640.38,960.79l3.94,2.92.96-5.4-4.9,2.48ZM678.57,981.81l-9.46-7.03-5.85,7.88,9.45,7.03c.53.39.99.32,1.38-.21l4.68-6.3c.39-.53.32-.98-.2-1.37ZM797.51,1076.25l2.79,16.82,14.13-19.02-16.92,2.2ZM827.63,1092.49l-9.46-7.02-5.85,7.88,9.45,7.03c.53.39.99.32,1.38-.21l4.68-6.3c.39-.53.32-.98-.2-1.38ZM827.63,1092.49l-9.46-7.02-5.85,7.88,9.45,7.03c.53.39.99.32,1.38-.21l4.68-6.3c.39-.53.32-.98-.2-1.38ZM797.51,1076.25l2.79,16.82,14.13-19.02-16.92,2.2ZM678.57,981.81l-9.46-7.03-5.85,7.88,9.45,7.03c.53.39.99.32,1.38-.21l4.68-6.3c.39-.53.32-.98-.2-1.37ZM640.38,960.79l3.94,2.92.96-5.4-4.9,2.48ZM640.38,960.79l3.94,2.92.96-5.4-4.9,2.48ZM678.57,981.81l-9.46-7.03-5.85,7.88,9.45,7.03c.53.39.99.32,1.38-.21l4.68-6.3c.39-.53.32-.98-.2-1.37ZM797.51,1076.25l2.79,16.82,14.13-19.02-16.92,2.2ZM827.63,1092.49l-9.46-7.02-5.85,7.88,9.45,7.03c.53.39.99.32,1.38-.21l4.68-6.3c.39-.53.32-.98-.2-1.38ZM827.63,1092.49l-9.46-7.02-5.85,7.88,9.45,7.03c.53.39.99.32,1.38-.21l4.68-6.3c.39-.53.32-.98-.2-1.38ZM797.51,1076.25l2.79,16.82,14.13-19.02-16.92,2.2ZM678.57,981.81l-9.46-7.03-5.85,7.88,9.45,7.03c.53.39.99.32,1.38-.21l4.68-6.3c.39-.53.32-.98-.2-1.37ZM640.38,960.79l3.94,2.92.96-5.4-4.9,2.48ZM640.38,960.79l3.94,2.92.96-5.4-4.9,2.48ZM678.57,981.81l-9.46-7.03-5.85,7.88,9.45,7.03c.53.39.99.32,1.38-.21l4.68-6.3c.39-.53.32-.98-.2-1.37ZM797.51,1076.25l2.79,16.82,14.13-19.02-16.92,2.2ZM827.63,1092.49l-9.46-7.02-5.85,7.88,9.45,7.03c.53.39.99.32,1.38-.21l4.68-6.3c.39-.53.32-.98-.2-1.38ZM827.63,1092.49l-9.46-7.02-5.85,7.88,9.45,7.03c.53.39.99.32,1.38-.21l4.68-6.3c.39-.53.32-.98-.2-1.38ZM797.51,1076.25l2.79,16.82,14.13-19.02-16.92,2.2ZM678.57,981.81l-9.46-7.03-5.85,7.88,9.45,7.03c.53.39.99.32,1.38-.21l4.68-6.3c.39-.53.32-.98-.2-1.37ZM640.38,960.79l3.94,2.92.96-5.4-4.9,2.48ZM640.38,960.79l3.94,2.92.96-5.4-4.9,2.48ZM678.57,981.81l-9.46-7.03-5.85,7.88,9.45,7.03c.53.39.99.32,1.38-.21l4.68-6.3c.39-.53.32-.98-.2-1.37ZM797.51,1076.25l2.79,16.82,14.13-19.02-16.92,2.2ZM827.63,1092.49l-9.46-7.02-5.85,7.88,9.45,7.03c.53.39.99.32,1.38-.21l4.68-6.3c.39-.53.32-.98-.2-1.38ZM827.63,1092.49l-9.46-7.02-5.85,7.88,9.45,7.03c.53.39.99.32,1.38-.21l4.68-6.3c.39-.53.32-.98-.2-1.38ZM797.51,1076.25l2.79,16.82,14.13-19.02-16.92,2.2ZM678.57,981.81l-9.46-7.03-5.85,7.88,9.45,7.03c.53.39.99.32,1.38-.21l4.68-6.3c.39-.53.32-.98-.2-1.37ZM640.38,960.79l3.94,2.92.96-5.4-4.9,2.48ZM640.38,960.79l3.94,2.92.96-5.4-4.9,2.48ZM678.57,981.81l-9.46-7.03-5.85,7.88,9.45,7.03c.53.39.99.32,1.38-.21l4.68-6.3c.39-.53.32-.98-.2-1.37ZM678.57,981.81l-9.46-7.03-5.85,7.88,9.45,7.03c.53.39.99.32,1.38-.21l4.68-6.3c.39-.53.32-.98-.2-1.37ZM640.38,960.79l3.94,2.92.96-5.4-4.9,2.48Z"/>
  <path class="cls-1" d="M843.56,1053.09l-333.06-247.32-23.78-17.66-22-16.33-25.92-19.26-81.85-60.78-14.51,30.97.72-.97,7.88,5.85-11.12,14.97,17.34,12.87-5.27,7.09-20.93-15.53-12.78,27.29,67.27,49.95,26.14,19.41,7.66,5.69.94.7,13.04,9.68h.01l23.91,17.76,368.75,273.83,26.68-35.92h0s-9.12-62.29-9.12-62.29ZM353.57,763.7l16.38-22.07,7.88,5.85-11.12,14.98,17.34,12.87-5.27,7.09-25.21-18.72ZM403.8,799.65c-1.86-.49-3.9-1.55-6.11-3.19l-7.88-5.85c-6.3-4.68-7.7-9.38-4.19-14.11l11.12-14.97,8.67,6.43-10.53,14.19c-.39.52-.32.98.2,1.37l7.88,5.85c.53.39.98.32,1.38-.2l10.53-14.19,4.67,3.47,4,2.97-11.12,14.98c-2.28,3.07-5.15,4.15-8.62,3.25ZM441.96,815.88l-1.17,1.58c-2.9,3.9-6.74,4.6-11.54,2.09-1.02-.52-2.08-1.2-3.19-2.02l-7.88-5.85c-6.3-4.68-7.7-9.39-4.19-14.11l.59-.79,8.67,6.43c-.39.53-.33.99.2,1.38l7.88,5.85c.52.39.98.32,1.37-.2.39-.53.33-.99-.2-1.38l-7.88-5.85c-6.3-4.68-8.29-8.6-5.95-11.75l1.17-1.58c3.52-4.72,8.42-4.75,14.73-.07l7.88,5.86c6.3,4.68,7.7,9.38,4.19,14.11l-.59.79-8.67-6.44c.39-.52.33-.98-.2-1.37l-7.88-5.85c-.52-.39-.98-.33-1.37.2-.39.52-.32.98.2,1.37l7.88,5.85c4.44,3.3,6.73,6.21,6.88,8.74.08,1.07-.24,2.08-.93,3.01ZM453.64,838.01l-2.49-1.85-5.39-4,8.19-11.03,2.93-3.94-8.67-6.44,5.27-7.09,25.22,18.72-5.27,7.1-8.67-6.44-11.12,14.97ZM522.99,889.51l-9.46-7.03.77-4.32-11.82-8.78-3.92,1.99-7.88-5.86-1.58-1.17-7.09-5.26,2.93-3.94c.39-.53.32-.99-.2-1.38l-6.37-4.73-3.09-2.29-3.51,4.73-7.88-5.85,16.38-22.07,10.97,8.15,6.37,4.73c6.3,4.68,7.7,9.38,4.19,14.11l-2.34,3.15c-1.03,1.39-2.18,2.37-3.44,2.95-.19,1.38-.8,2.76-1.83,4.15l-1.46,1.96,25.37-11.11,8.66,6.44-3.77,31.43ZM537.96,900.62l-7.88-5.85,11.12-14.97-8.67-6.44,5.27-7.09,25.21,18.73-5.26,7.09-8.67-6.44-11.12,14.97ZM565.54,921.1l-7.88-5.85c-6.3-4.68-7.7-9.38-4.19-14.11l5.85-7.88c3.51-4.73,8.42-4.75,14.73-.07l7.88,5.85c6.3,4.68,7.7,9.39,4.19,14.11l-5.86,7.88c-3.51,4.73-8.42,4.76-14.72.07ZM614.48,934.22l-2.34,3.15c-1.03,1.39-2.17,2.37-3.43,2.95-.19,1.38-.8,2.76-1.83,4.14l-3.51,4.73-8.67-6.43,2.92-3.94c.39-.53.33-.99-.2-1.38l-9.45-7.02-3.52,4.73-7.88-5.85,16.39-22.07,17.33,12.88c6.31,4.68,7.71,9.38,4.19,14.11ZM667.45,996.78l-15.76-11.71-1.58-1.17-7.88-5.85.77-4.32-11.83-8.78-3.91,1.98-9.46-7.02,29-12.7,8.66,6.44-3.3,27.49,14.34-19.3,17.33,12.87c6.31,4.69,7.7,9.39,4.19,14.12l-5.85,7.88c-3.51,4.73-8.42,4.75-14.72.07ZM695.82,1017.84l-7.88-5.85c-6.31-4.68-7.7-9.38-4.19-14.11l5.85-7.88c3.51-4.73,8.42-4.75,14.72-.07l7.88,5.85c6.31,4.68,7.7,9.39,4.19,14.11l-5.85,7.88c-3.51,4.73-8.42,4.75-14.72.07ZM724.18,1038.91l-17.33-12.87,16.38-22.07,17.34,12.88c6.3,4.68,7.7,9.38,4.19,14.11l-1.17,1.58c-.69.92-1.54,1.51-2.56,1.76.05,1.05-.27,2.04-.95,2.96l-1.17,1.58c-3.51,4.73-8.42,4.75-14.73.07ZM760.43,1065.83l-25.21-18.73,16.38-22.06,25.22,18.72-5.27,7.09-17.33-12.87-1.18,1.58,14.19,10.53-3.51,4.73-14.19-10.53-1.17,1.57,17.34,12.88-5.27,7.09ZM837.08,1099.52l-5.85,7.88c-3.51,4.73-8.42,4.75-14.72.07l-15.76-11.71-1.58-1.17-9.45-7.02-1.68-10.09-10.14,1.31-11.04-8.19,19.62-2.55-3.23-19.51,11.03,8.19,1.67,10.09,10.15-1.31,9.46,7.02,1.57,1.17,15.76,11.7c6.31,4.68,7.7,9.39,4.19,14.12Z"/>
  <path class="cls-1" d="M481.25,426.48l-24.77-26-11.17-11.73-30.17-31.67-33.35-34.99-98.96,25.6,91.64,96.19,23.91,25.09,6.54,6.86,4.54,4.77,8.37,8.79,22.75,23.88,98.85,103.74,18.91-25.47c-.65-2.77.22-5.29,2.6-7.56l7.11-6.77c.69-.66,1.39-1.19,2.11-1.59l23.3-31.37-112.21-117.77ZM333.61,358.18l13.5-12.86-7.44-7.82,6.39-6.09,21.67,22.74-6.4,6.09-7.44-7.82-13.51,12.87-6.77-7.11ZM375.59,402.24l-1.35-1.42-6.77-7.11,1.48-4.13-10.15-10.66-4.2,1.29-8.12-8.53,30.73-7.59,7.44,7.82-7.93,26.55,17.41-16.6,6.3,6.62.47.49-1.27,1.21-18.62,17.74-5.42-5.68ZM404.03,432.08l-16.11-16.91-5.56-5.83,14.97-14.25h0s4.93-4.7,4.93-4.7l6.77,7.1-13.5,12.87,14.89,15.63-6.39,6.09ZM426.37,455.53l1.39-5.71,2.46-10.16-16.04,3.08-2.36-2.47-6.44-6.76,19.9-18.96.74.78,6.03,6.32-10.66,10.16,4.64-1.04,4.85-1.09,7.26-1.63,2.95,3.09,1.11,1.17-3.28,11.9-1.28,4.66.91-.86,9.75-9.3,6.77,7.11-19.9,18.95-8.8-9.24ZM436.52,466.19l19.9-18.95,6.77,7.1-19.89,18.96-6.78-7.11ZM457.51,488.22l4.57-16.55-3.63,3.46-7.03,6.7-6.77-7.11,19.9-18.96,2,2.1,6.8,7.14-3.86,15.88,9.95-9.48,6.77,7.1-19.9,18.96-8.8-9.24ZM497.08,516.95c-4.26,4.06-9.1,3.25-14.52-2.43l-14.89-15.64,19.9-18.95,14.89,15.63c5.42,5.68,5.99,10.56,1.73,14.62l-7.11,6.77ZM520.7,554.54l-14.9-15.63,19.9-18.96,14.89,15.63c5.42,5.69,6,10.56,1.73,14.62l-1.42,1.36c-.83.79-1.77,1.23-2.82,1.3-.13,1.05-.61,1.96-1.44,2.76l-1.42,1.35c-4.27,4.07-9.11,3.25-14.52-2.43ZM566.69,575.78l-7.1,6.78c-4.26,4.06-9.11,3.25-14.52-2.44l-6.77-7.11c-5.42-5.68-6-10.55-1.73-14.62l7.1-6.77c4.27-4.06,9.11-3.25,14.52,2.44l6.78,7.1c5.41,5.69,5.99,10.56,1.72,14.62Z"/>
  <polygon class="cls-1" points="373.83 374.77 371.96 379.94 368.58 376.38 373.83 374.77"/>
  <path class="cls-1" d="M496.03,503.04l-5.68,5.42c-.48.45-.94.44-1.39-.04l-8.12-8.52,7.1-6.77,8.13,8.52c.45.48.44.94-.04,1.39Z"/>
  <path class="cls-1" d="M528.51,547.09c.45.48.44.94-.03,1.39s-.94.44-1.39-.03l-8.12-8.53,1.42-1.36,8.12,8.53Z"/>
  <path class="cls-1" d="M534.16,543.06c-.47.45-.93.44-1.38-.03l-8.13-8.53,1.42-1.35,8.13,8.53c.45.47.44.93-.04,1.38Z"/>
  <path class="cls-1" d="M558.54,568.65l-5.69,5.41c-.47.45-.93.44-1.39-.03l-6.77-7.11c-.45-.47-.44-.94.04-1.39l5.68-5.41c.48-.45.94-.44,1.39.03l6.77,7.11c.45.47.44.93-.03,1.39Z"/>
  <polygon class="cls-1" points="623.63 575.91 613.97 588.9 612.4 587.73 622.25 574.47 623.63 575.91"/>
  <polygon class="cls-1" points="629.12 581.68 620.28 593.58 618.7 592.41 627.74 580.23 629.12 581.68"/>
  <path class="cls-1" d="M677.7,693.72l-1.42,1.35c-.48.45-.94.44-1.39-.03l-8.13-8.53,2.85-2.71,8.12,8.53c.45.47.44.93-.03,1.39Z"/>
  <polygon class="cls-1" points="698.35 715.39 696.49 720.55 693.1 717 698.35 715.39"/>
  <path class="cls-1" d="M727.12,745.59l-1.42,1.35c-.47.46-.94.45-1.39-.03l-8.12-8.53,2.84-2.71,8.13,8.53c.45.48.44.94-.04,1.39Z"/>
  <polygon class="cls-1" points="873.63 967.79 873.05 967.18 873.53 967.11 873.63 967.79"/>
  <path class="cls-1" d="M931.76,971.75c-.48.46-.94.45-1.39-.03l-8.13-8.53,1.43-1.35,8.12,8.53c.45.47.44.93-.03,1.38Z"/>
  <path class="cls-1" d="M937.44,966.34c-.47.45-.94.44-1.39-.03l-8.12-8.53,1.42-1.36,8.12,8.53c.46.47.44.94-.03,1.39Z"/>
  <path class="cls-1" d="M601.51,608.98l-7.03,9.46-1.59-1.18-1.56-1.16,6.04-8.12.99-1.33c.39-.53.84-.6,1.37-.21l1.57,1.17c.53.39.6.85.21,1.37Z"/>
  <path class="cls-1" d="M131.45,294.59l22.37,86.47,129.01-33.37,98.96-25.6,56.61-14.65,16.27-34.71-16.2,4.19-6.89-26.6,20.91-5.41c6.99-1.81,11.39-.38,13.19,4.3l21.91-46.75-356.14,92.13ZM206.3,336.98l-9.5,2.46-4.67-18.06-10.45,2.71-2.21-8.55,30.4-7.87,2.21,8.55-10.45,2.71,4.67,18.05ZM255.72,324.2l-1.91.49-9.5,2.46-2.88-3.31-14.26,3.69-.91,4.29-11.4,2.95,8.32-30.54,10.45-2.71,19.32,19.83-6.02-23.27,9.5-2.46,6.89,26.61-7.6,1.97ZM265.22,321.74l-6.89-26.61,9.51-2.46,4.67,18.06,20.9-5.41,2.21,8.55-30.4,7.87ZM326.98,305.76l-6.99-6.47-5-4.62-4.5,13.67-.61,1.85-1.83.47-10.52,2.72-6.89-26.6,9.51-2.46,3.68,14.25,4.87-16.47,5.7-1.47,12.24,12.04-3.69-14.25,9.5-2.46,2.38,9.19,4.51,17.42-12.36,3.19ZM341.24,302.07l-4.78-18.47-2.11-8.13,9.51-2.46,3.28,12.7h.01s3.59,13.91,3.59,13.91l-9.5,2.45ZM370.69,294.45l-12.24-12.04,3.69,14.26-3.66.94-5.84,1.51-2.71-10.48-4.17-16.12,12.35-3.2,11.99,11.09-3.44-13.3,9.5-2.46,6.89,26.61-12.36,3.19ZM405.85,285.36l-20.9,5.41-6.89-26.61,20.91-5.41c7.6-1.96,12.14-.1,13.62,5.6l2.45,9.51c1.48,5.7-1.59,9.53-9.19,11.5Z"/>
  <polygon class="cls-1" points="234.47 316.52 229.71 317.74 230.86 312.38 234.47 316.52"/>
  <path class="cls-1" d="M403.64,276.81l-11.4,2.95-2.46-9.51,11.4-2.95c.64-.16,1.03.07,1.2.71l1.96,7.6c.17.63-.07,1.03-.7,1.2Z"/>
  <path class="cls-1" d="M455.19,255.36l-11.4,2.95-.49-1.9,11.4-2.95c.63-.16,1.03.07,1.2.7.16.64-.08,1.04-.71,1.2Z"/>
  <path class="cls-1" d="M457.16,262.96l-11.4,2.95-.5-1.9,11.41-2.95c.63-.16,1.03.07,1.19.71.17.63-.07,1.03-.7,1.19Z"/>
  <path class="cls-1" d="M513.05,257.03l.56.71.35-.74c-.31.02-.61.03-.91.03Z"/>
  <polygon class="cls-1" points="938.17 158.91 935.25 162.85 932.77 157.95 938.17 158.91"/>
  <path class="cls-1" d="M1023.86,115.35c-.06-.23-.15-.4-.28-.53l-1.48,1.99,1.06-.27c.63-.16.87-.56.7-1.19ZM985.67,165.87l74.73-19.33-22.37-86.47-35.83,9.27,35.55,26.4-5.8,7.81.15.54.49,1.9c.29,1.12.22,2.15-.23,3.1.85.62,1.42,1.49,1.71,2.6l.49,1.9c1.48,5.7-1.59,9.54-9.19,11.5l-11.66,3.02-28.04,37.76ZM1023.86,115.35c-.06-.23-.15-.4-.28-.53l-1.48,1.99,1.06-.27c.63-.16.87-.56.7-1.19ZM1023.86,115.35c-.06-.23-.15-.4-.28-.53l-1.48,1.99,1.06-.27c.63-.16.87-.56.7-1.19ZM968.32,139.7l-.13.18.17-.04-.04-.14ZM592.8,226.86c-.17-.63-.57-.87-1.2-.71l-9.5,2.46c-3.58.93-6.43,1.22-8.54.86l-1.26,2.69,9.09-2.35c.17.63.57.87,1.2.7l9.5-2.45c.63-.17.87-.57.71-1.2ZM657.84,203.95l-.49-1.9c-.17-.63-.57-.87-1.2-.7l-11.4,2.95.98,3.8,11.4-2.95c.64-.17.87-.57.71-1.2ZM686.33,194.55l-1.15,5.37,4.75-1.23-3.6-4.14Z"/>
  <path class="cls-1" d="M932.79,87.3l-135.23,34.98-28.78,7.45h-.01l-16.86,4.36h0l-41.31,10.68-110.77,28.66-17.79,37.96,5.39-1.39c7.6-1.97,12.14-.1,13.62,5.6l.24.95-10.45,2.71c-.16-.64-.56-.87-1.2-.71l-9.5,2.46c-.63.17-.87.56-.7,1.2.16.63.56.87,1.19.7l9.51-2.46c7.6-1.96,11.89-1.05,12.87,2.75l.49,1.91c1.48,5.7-1.58,9.53-9.19,11.5l-9.5,2.46c-7.29,1.88-11.77.24-13.42-4.94l-20.75,44.28,172.98-44.75,31.45-8.13,26.76-6.93,28.76-7.43,37.41-9.68,28.04-37.76-4.6,1.19c-7.6,1.96-12.14.1-13.61-5.6l-2.46-9.51c-1.48-5.7,1.59-9.53,9.19-11.5l20.91-5.41,2.21,8.55-20.91,5.41c-.63.17-.87.56-.7,1.2l1.96,7.6c.17.63.57.87,1.2.7l9.5-2.45c.64-.17.87-.57.71-1.2l-.25-.95-9.5,2.46-1.48-5.7,19.96-5.17.78,3,1.5-2.02-3.09-11.92,9.51-2.46,1.1,4.25,1.5-2.03-.7-2.71,3.36-.87,30.67-41.29ZM627.56,228l-9.5,2.46-4.67-18.05-10.45,2.7-2.22-8.55,30.41-7.87,2.21,8.56-10.45,2.7,4.67,18.05ZM728.71,195.75l-10.27,2.66-1.13.29,1.48,5.7-7.61,1.97-1.9.49-9.5,2.46-2.88-3.31-14.26,3.69-.91,4.29-9.51,2.46-1.9.49-8.55,2.21-1.23-4.75c-.16-.63-.56-.87-1.19-.7l-11.41,2.95,1.48,5.7-9.5,2.46-6.89-26.61,20.91-5.41c7.6-1.96,12.14-.1,13.61,5.61l.99,3.8c.43,1.67.47,3.18.13,4.52.95,1.02,1.65,2.36,2.08,4.03l.61,2.37,7.28-26.72,10.46-2.7,19.32,19.83-6.02-23.27,12.9-3.34,8.01-2.07c7.6-1.97,12.14-.1,13.61,5.6l.98,3.8c1.48,5.7-1.59,9.54-9.19,11.5ZM783.71,187.61l-9.51,2.46c-7.6,1.97-12.14.1-13.61-5.6l-2.46-9.51h0c-1.15-4.46.47-7.76,4.85-9.94.32-.16.66-.31,1.01-.45.99-.42,2.1-.79,3.33-1.11l6.17-1.6,14.74-3.81,2.21,8.56-19.28,4.98-1.63.42c-.59.16-.84.52-.72,1.09,0,.04.01.07.02.11l1.97,7.6c.16.64.56.87,1.19.71l9.5-2.46c.64-.16.87-.56.71-1.2l-.25-.95-9.5,2.46-1.48-5.7,19.96-5.16,1.97,7.6c1.47,5.7-1.59,9.53-9.19,11.5ZM806.27,181.77l-9.26,2.4-6.88-26.61,9.5-2.46,6.31,24.39v.03l.57,2.19-.24.06ZM828.37,176.06l-9.51,2.46-4.67-18.06-10.45,2.71-.44-1.7h0s-1.77-6.86-1.77-6.86l.74-.19,29.67-7.67,2.21,8.55-10.45,2.7,4.67,18.06Z"/>
  <g>
    <path class="cls-1" d="M582.46,0l-94.87,202.46-21.91,46.75h0s-11.01,23.52-11.01,23.52l-16.27,34.71-23.26,49.64,30.17,31.67,21.83-1.77-4.99,10.67-4.39.11-1.28,2.72,24.77,26,69.38-148.07,20.75-44.28.92-1.97,1.26-2.69,8.47-18.07h0s17.79-37.97,17.79-37.97l63.51-135.53L582.46,0ZM470.89,378.98l-16.88-7.91-4.59,9.78-7.99-3.75,13.32-28.44,8,3.74-4.58,9.78,16.89,7.91-4.17,8.89ZM489.63,338.99l-4.16,8.88c-3.33,7.12-7.67,9.42-13,6.92l-8.89-4.16c-5.33-2.5-6.33-7.31-3-14.42l4.17-8.88c3.33-7.11,7.66-9.42,12.99-6.92l8.89,4.16c5.34,2.5,6.33,7.31,3,14.42ZM505.04,306.1l-4.44-2.08c-.59-.28-1.03-.12-1.31.47l-4.99,10.67,5.33,2.5-4.17,8.88-24.88-11.66,8.4-17.94h.01l.75-1.61c3.33-7.11,7.66-9.42,13-6.92l3.55,1.67c1.04.48,1.91,1.06,2.62,1.71.36.34.68.69.96,1.07,1.38-.09,2.86.23,4.42.97l5.33,2.49-4.58,9.78ZM544.68,221.06c-.3.95-.7,1.94-1.19,2.99l-3.43,7.33-3.81,8.12-1.09,2.32-.83,1.78-4.17,8.89-4.38.11-.92,1.97-5.33,11.36,2.72,3.45-5,10.66-15.48-21.98-2.74-3.9,2.91-6.21,1.3-2.79.37-.78,10.37-.84,11.91-.97,5.32-.43-6.18-2.9-5.47-2.56-10.12-4.74.93-1.99,8.23-17.56c3.34-7.11,7.67-9.42,13-6.92l8.89,4.17c4.54,2.12,5.94,5.93,4.19,11.42ZM558.48,192.05l-4.16,8.89c-3.33,7.11-7.66,9.42-13,6.92l-8.89-4.17c-4.64-2.18-6-6.1-4.07-11.78h.01c.27-.84.63-1.72,1.06-2.63l4.17-8.89c3.33-7.11,7.66-9.41,12.99-6.92l8.89,4.17c2.86,1.34,4.47,3.35,4.83,6.01.33,2.3-.29,5.1-1.83,8.4ZM573.48,160.06l-9.17,19.55-24.88-11.66,9.16-19.55c3.33-7.11,7.66-9.42,13-6.92l1.77.83c1.05.49,1.79,1.21,2.25,2.16,1.01-.26,2.04-.15,3.09.34l1.77.83c5.34,2.5,6.34,7.31,3.01,14.42ZM579.31,147.61l-24.89-11.66,13.33-28.44,8,3.75-9.17,19.55,1.78.84,7.5-16,5.33,2.5-7.5,15.99,1.78.84,9.16-19.55,8,3.74-13.32,28.44ZM613.94,73.7l-.83,1.78-5,10.67-9.56,3.65,3.31,9.68-5.83,12.44-6.4-18.72-18.48,7.06,5.83-12.44,9.55-3.65-3.31-9.69,5-10.66.83-1.78,8.33-17.77c3.34-7.11,7.67-9.42,13-6.92l8.89,4.16c5.33,2.5,6.33,7.31,3,14.42l-8.33,17.77Z"/>
    <path class="cls-1" d="M481.63,335.24l-4.16,8.89c-.28.59-.71.75-1.31.47l-7.11-3.33c-.59-.28-.75-.72-.47-1.31l4.17-8.89c.27-.59.71-.75,1.3-.47l7.11,3.33c.59.28.75.72.47,1.31Z"/>
    <path class="cls-1" d="M550.48,188.3l-4.16,8.89c-.28.59-.71.75-1.31.47l-7.11-3.33c-.59-.27-.75-.71-.47-1.3l1.85-3.94,2.32-4.95c.27-.59.71-.75,1.3-.47l6.17,2.89.94.44c.59.28.75.71.47,1.3Z"/>
    <path class="cls-1" d="M515.69,253.3l-1.73,3.7c-.31.02-.61.03-.91.03h-.01l-2.83-3.59,5.48-.14Z"/>
    <path class="cls-1" d="M535.49,220.3l-3.7,7.89-1.3,2.78-8.54-4.01-.34-.16,4.99-10.66c.28-.6.72-.75,1.31-.48l7.11,3.34c.59.27.75.71.47,1.3Z"/>
    <path class="cls-1" d="M726.5,187.2l-9.34,2.42-2.06.53-.99-3.8,2.48-.64,8.93-2.31c.63-.16,1.03.07,1.19.71l.49,1.9c.17.63-.07,1.03-.7,1.19Z"/>
    <path class="cls-1" d="M968.32,139.7l-.13.18.17-.04-.04-.14Z"/>
    <path class="cls-1" d="M1002.2,69.34l-36.15-26.84-33.25,44.79h-.01s-30.67,41.3-30.67,41.3l-2.66,3.58-1.5,2.03-7.52,10.13-1.5,2.02-12.91,17.38-28.04,37.76-32.44,43.68,6.63,45.25,2.75-3.71,19.74,3.05-8.62-18.02,5.85-7.88,1.17-1.58,17.56-23.64,7.09,5.27-12.88,17.33,1.58,1.17,10.53-14.18,4.73,3.51-10.53,14.18,1.57,1.17,12.88-17.33,7.09,5.26-18.73,25.22-19.3-14.33,11.11,25.36-6.43,8.67-26.23-3.15,1.28,8.74,19.09,2.29-7.02,9.46-4.32-.77-5.13,6.91,6.86,46.88,151.8-204.43,28.04-37.76,8.39-11.29h0s1.48-2,1.48-2l8.37-11.27,5.8-7.81-35.55-26.4ZM883.86,253.45l-22.06-16.39,5.85-7.88,14.97,11.12,12.87-17.33,7.1,5.26-18.73,25.22ZM928.52,193.31l-5.85,7.88c-4.68,6.3-9.39,7.7-14.12,4.19l-.79-.59,6.44-8.67c.53.39.98.33,1.38-.2l5.85-7.88c.39-.52.32-.98-.21-1.37-.52-.39-.98-.32-1.37.2l-5.85,7.88c-4.68,6.31-8.6,8.29-11.75,5.95l-1.58-1.17c-3.76-2.81-4.55-6.49-2.34-11.07h.01c.56-1.16,1.31-2.38,2.26-3.66l5.86-7.88c4.68-6.3,9.38-7.7,14.11-4.19l.79.59-6.44,8.67c-.52-.39-.98-.33-1.37.2l-2.14,2.89h0l-3.7,4.99c-.39.53-.33.98.2,1.37.52.39.98.33,1.37-.2l5.15-6.94.7-.94c4.68-6.3,8.6-8.29,11.75-5.95l1.58,1.17c.7.52,1.29,1.06,1.77,1.64h.01c2.85,3.35,2.28,7.71-1.71,13.09ZM952.51,161l-4.32-.76-8.78,11.81,1.98,3.92-1.25,1.68-5.77,7.78-2.47-5.65-10.23-23.34,6.44-8.67,31.42,3.77-7.02,9.46ZM971.25,135.77h-.01s-2.92,3.93-2.92,3.93l.04.14-.17.04-2.81,3.78c-4.68,6.31-9.38,7.7-14.11,4.19l-.79-.58,6.44-8.67c.37.28.7.32,1.01.14.13-.07.25-.19.36-.34l5.85-7.88c.39-.53.33-.99-.2-1.38-.52-.39-.98-.32-1.37.21l-5.24,7.06-.61.82c-3.66,4.92-6.85,7.2-9.57,6.85-.77-.09-1.49-.4-2.18-.91l-1.58-1.17c-4.64-3.44-4.75-8.24-.32-14.37.08-.11.16-.23.25-.35l5.85-7.88c.97-1.31,1.94-2.4,2.91-3.28.26-.24.52-.46.78-.66,2.41-1.93,4.83-2.55,7.26-1.87.54.15,1.07.36,1.61.64.52.27,1.04.59,1.56.98l.78.58-1.44,1.94-4.99,6.73c-.53-.39-.99-.32-1.38.21l-5.85,7.88c-.39.52-.32.98.21,1.37.52.39.98.32,1.37-.2l5.85-7.88c1.95-2.62,3.76-4.5,5.44-5.62.61-.42,1.21-.73,1.78-.93,1.66-.62,3.17-.41,4.53.6l1.58,1.17c4.72,3.51,4.75,8.41.08,14.71ZM994,104.83h-.01c-.47.84-1.03,1.69-1.69,2.58l-5.18,6.98-.67.9c-3.22,4.34-6.46,6.36-9.7,6.05-1.47-.14-2.94-.76-4.41-1.86l-.79-.58,3.39-4.57,3.04-4.1c.53.39.99.32,1.38-.2l5.85-7.88c.39-.53.32-.99-.2-1.38-.53-.39-.99-.32-1.38.21l-5.85,7.88c-1.13,1.53-2.22,2.8-3.27,3.81-3.27,3.2-6.09,3.9-8.48,2.13l-1.57-1.17c-.39-.29-.74-.58-1.06-.89-3.64-3.43-3.31-8.04.99-13.83l5.85-7.88c4.68-6.3,9.38-7.7,14.11-4.19l.79.59-6.44,8.66c-.52-.39-.98-.32-1.37.21l-5.85,7.88c-.39.52-.32.98.2,1.37.53.39.98.32,1.37-.2l5.86-7.88c4.68-6.31,8.59-8.29,11.75-5.95l1.57,1.17c4.06,3.02,4.65,7.07,1.77,12.14Z"/>
  </g>
</svg>